<svg xmlns="http://www.w3.org/2000/svg" width="22" height="22" viewBox="0 0 22 22">
  <g id="Group_401" data-name="Group 401" transform="translate(-778 -50)">
    <g id="Ellipse_38" data-name="Ellipse 38" transform="translate(778 50)" fill="none" stroke="#fff" stroke-width="1">
      <circle cx="11" cy="11" r="11" stroke="none"/>
      <circle cx="11" cy="11" r="10.5" fill="none"/>
    </g>
    <g id="_004-odnoklassniki-logo" data-name="004-odnoklassniki-logo" transform="translate(785 54)">
      <g id="Group_312" data-name="Group 312" transform="translate(0 0)">
        <path id="Path_1143" data-name="Path 1143" d="M22.537,50.853a5.36,5.36,0,0,1-2.859-1.021c-.1-.08-.208-.158-.3-.247a.857.857,0,0,1,.97-1.4,1.672,1.672,0,0,1,.237.14,4.688,4.688,0,0,0,5.2.048,1.409,1.409,0,0,1,.506-.262.8.8,0,0,1,.91.363.771.771,0,0,1-.055,1.014,4.2,4.2,0,0,1-1.511.977,7.093,7.093,0,0,1-1.716.384c.088.1.13.143.185.2.794.8,1.592,1.593,2.384,2.393a.788.788,0,0,1,.178.928.941.941,0,0,1-.882.55.859.859,0,0,1-.558-.286c-.6-.6-1.21-1.2-1.8-1.81-.171-.179-.253-.145-.4.01-.6.621-1.216,1.232-1.832,1.84a.768.768,0,0,1-.927.166.938.938,0,0,1-.542-.864.864.864,0,0,1,.291-.58q1.179-1.177,2.354-2.358C22.413,50.989,22.461,50.934,22.537,50.853Z" transform="translate(-19.074 -41.136)" fill="#fff"/>
        <path id="Path_1144" data-name="Path 1144" d="M27.055,6.982a3.491,3.491,0,1,1,3.512-3.446A3.493,3.493,0,0,1,27.055,6.982Zm1.734-3.494a1.708,1.708,0,1,0-1.7,1.712A1.7,1.7,0,0,0,28.789,3.488Z" transform="translate(-22.941 0)" fill="#fff"/>
      </g>
    </g>
  </g>
</svg>
