<svg xmlns="http://www.w3.org/2000/svg" width="22" height="22" viewBox="0 0 22 22">
  <g id="Group_404" data-name="Group 404" transform="translate(-857 -50)">
    <g id="Path_1260" data-name="Path 1260" transform="translate(857 50)" fill="none">
      <path d="M11,0A11,11,0,1,1,0,11,11,11,0,0,1,11,0Z" stroke="none"/>
      <path d="M 11 1 C 5.485979080200195 1 1 5.485979080200195 1 11 C 1 16.51401901245117 5.485979080200195 21 11 21 C 16.51401901245117 21 21 16.51401901245117 21 11 C 21 5.485979080200195 16.51401901245117 1 11 1 M 11 0 C 17.07513046264648 0 22 4.924869537353516 22 11 C 22 17.07513046264648 17.07513046264648 22 11 22 C 4.924869537353516 22 0 17.07513046264648 0 11 C 0 4.924869537353516 4.924869537353516 0 11 0 Z" stroke="none" fill="#fff"/>
    </g>
    <g id="_005-telegram" data-name="005-telegram" transform="translate(861 56)">
      <path id="XMLID_497_" d="M.21,24.354l2.734,1.02L4,28.777a.322.322,0,0,0,.511.154l1.524-1.242a.455.455,0,0,1,.554-.015l2.749,2a.322.322,0,0,0,.5-.195l2.013-9.685a.322.322,0,0,0-.431-.366L.206,23.751A.322.322,0,0,0,.21,24.354Zm3.621.477L9.174,21.54a.093.093,0,0,1,.112.147l-4.409,4.1a.914.914,0,0,0-.283.547l-.15,1.113a.138.138,0,0,1-.27.02L3.6,25.436A.538.538,0,0,1,3.831,24.831Z" transform="translate(0 -19.401)" fill="#fff"/>
    </g>
  </g>
</svg>
