<svg xmlns="http://www.w3.org/2000/svg" width="22" height="22" viewBox="0 0 22 22">
  <g id="Group_403" data-name="Group 403" transform="translate(-804 -50)">
    <g id="Ellipse_39" data-name="Ellipse 39" transform="translate(804 50)" fill="none" stroke="#fff" stroke-width="1">
      <circle cx="11" cy="11" r="11" stroke="none"/>
      <circle cx="11" cy="11" r="10.5" fill="none"/>
    </g>
    <path id="_002-twitter" data-name="002-twitter" d="M4.822,10.578a11.089,11.089,0,0,1-1.713-.136A8.039,8.039,0,0,1,.766,9.589L0,9.171.829,8.9c.906-.3,1.458-.483,2.14-.772a2.847,2.847,0,0,1-1.463-1.7l-.193-.585.158.024a2.876,2.876,0,0,1-.36-.444A2.726,2.726,0,0,1,.648,3.8l.036-.511.306.119a2.86,2.86,0,0,1-.277-.777A2.956,2.956,0,0,1,1.028.644L1.295.154l.356.428A6.56,6.56,0,0,0,5.9,2.975a2.542,2.542,0,0,1,.154-1.35A2.529,2.529,0,0,1,7.083.446,3.088,3.088,0,0,1,8.875.006a2.862,2.862,0,0,1,1.759.726,5.906,5.906,0,0,0,.644-.215c.141-.053.3-.113.5-.183L12.519.08l-.481,1.375.1-.006.788-.036-.466.637c-.027.036-.034.047-.043.061-.038.057-.084.127-.724.981a1.2,1.2,0,0,0-.225.784,7.42,7.42,0,0,1-.4,2.984,5.281,5.281,0,0,1-1.418,2.1A6.262,6.262,0,0,1,6.676,10.4a9.137,9.137,0,0,1-1.854.182Zm0,0" transform="translate(808.919 56)" fill="#fff"/>
  </g>
</svg>
