<svg xmlns="http://www.w3.org/2000/svg" width="46.6" height="43.617" viewBox="0 0 46.6 43.617">
  <path id="Path_1398" data-name="Path 1398" d="M-3290.071-143.889c-.055-.072-.1-.142-.155-.2q-4.5-4.818-8.993-9.635-3.523-3.778-7.037-7.563c-1.286-1.387-2.556-2.788-3.713-4.286a18.753,18.753,0,0,1-2.177-3.448,12.5,12.5,0,0,1-1.12-4.084,18.234,18.234,0,0,1-.041-3.438,12.948,12.948,0,0,1,1.707-5.636,10.471,10.471,0,0,1,6.17-4.747,13.441,13.441,0,0,1,3.833-.559,15.039,15.039,0,0,1,5.484.93,14.792,14.792,0,0,1,5.262,3.4,2.34,2.34,0,0,0,.738.435.266.266,0,0,0,.185-.018,2.4,2.4,0,0,0,.78-.506,14.381,14.381,0,0,1,7.478-3.966,14.333,14.333,0,0,1,6.888.257,10.528,10.528,0,0,1,7.407,7.458,15.231,15.231,0,0,1,.605,4.647,15,15,0,0,1-.568,4.131,14.3,14.3,0,0,1-1.988,3.995,36.139,36.139,0,0,1-3.16,3.907q-2.984,3.263-6,6.5-2.508,2.708-5.027,5.407-3.14,3.372-6.284,6.742C-3289.874-144.083-3289.958-144-3290.071-143.889Z" transform="translate(3313.37 187.507)" fill="#ff0060"/>
</svg>
