<svg xmlns="http://www.w3.org/2000/svg" width="25.787" height="23.8" viewBox="0 0 25.787 23.8">
  <g id="Group_590" data-name="Group 590" transform="translate(985.652 659.289)">
    <path id="Path_1338" data-name="Path 1338" d="M-983.667-649.373c0-.356,0-.682,0-1.009q0-2.94.005-5.881a.957.957,0,0,1,1-1.031q1.97-.017,3.941,0a.977.977,0,0,1,1.016,1.06q0,3.386-.006,6.772a.475.475,0,0,0,.016.079h3.945c0-.484,0-.961,0-1.438q0-1.742.005-3.484a1.037,1.037,0,0,1,.532-.911c1.25-.82,2.488-1.657,3.731-2.487q1.069-.713,2.14-1.42a.945.945,0,0,1,1.12.037c.78.517,1.556,1.04,2.335,1.558,1.123.747,2.241,1.5,3.376,2.234a1.3,1.3,0,0,1,.649,1.227c-.023,2.061-.006,4.123-.006,6.185q0,5.7,0,11.391a.976.976,0,0,1-1.011,1h-10.846l-10.868,0c-.653,0-1.307,0-1.96,0a.989.989,0,0,1-1.087-1.079c-.005-1.038,0-2.076,0-3.114q0-3.06,0-6.119c0-.842,0-1.684,0-2.526a1,1,0,0,1,.98-1.038C-984.347-649.387-984.021-649.373-983.667-649.373Zm.011,11.888h21.776c.011-.02.023-.032.023-.045q0-1.4,0-2.808c0-1.081-.006-2.162-.006-3.244s.006-2.177.006-3.265-.006-2.177-.006-3.265-.01-2.163.016-3.243a.751.751,0,0,0-.412-.719c-1.475-.964-2.941-1.943-4.406-2.924a.227.227,0,0,0-.3,0q-2.306,1.543-4.62,3.072a.355.355,0,0,0-.184.345c.006,1.691,0,3.383,0,5.074a.991.991,0,0,1-1.109,1.119l-5.749.005a1,1,0,0,1-1.071-1.072q0-3.3,0-6.6v-.251h-1.973v1.361q0,2.71,0,5.42a1.02,1.02,0,0,1-1.143,1.14h-.84Z" transform="translate(0 0)" fill="#545454"/>
    <path id="Path_1339" data-name="Path 1339" d="M-890.518-340.33v1.963h-3.96v-1.963Z" transform="translate(-87.201 -305.063)" fill="#545454"/>
    <path id="Path_1340" data-name="Path 1340" d="M-757.665-340.563h3.94v1.971h-3.94Z" transform="translate(-218.054 -304.84)" fill="#545454"/>
    <path id="Path_1341" data-name="Path 1341" d="M-621.318-522.377h1.969v1.96h-1.969Z" transform="translate(-348.461 -130.947)" fill="#545454"/>
    <path id="Path_1342" data-name="Path 1342" d="M-619.431-340.275v1.957H-621.4v-1.957Z" transform="translate(-348.38 -305.115)" fill="#545454"/>
    <path id="Path_1343" data-name="Path 1343" d="M-619.368-431.408v1.96h-1.969v-1.96Z" transform="translate(-348.443 -217.953)" fill="#545454"/>
    <path id="Path_1344" data-name="Path 1344" d="M-530.378-340.52h1.969v1.969h-1.969Z" transform="translate(-435.439 -304.881)" fill="#545454"/>
    <path id="Path_1345" data-name="Path 1345" d="M-528.361-520.47h-1.962v-1.97h1.962Z" transform="translate(-435.491 -130.887)" fill="#545454"/>
    <path id="Path_1346" data-name="Path 1346" d="M-621.382-249.4h1.969v1.964h-1.969Z" transform="translate(-348.4 -392.028)" fill="#545454"/>
    <path id="Path_1347" data-name="Path 1347" d="M-528.411-431.28v1.957h-1.971v-1.957Z" transform="translate(-435.435 -218.075)" fill="#545454"/>
    <path id="Path_1348" data-name="Path 1348" d="M-530.353-247.422v-1.96h1.962v1.96Z" transform="translate(-435.463 -392.049)" fill="#545454"/>
  </g>
</svg>
