<svg xmlns="http://www.w3.org/2000/svg" width="22.616" height="23.8" viewBox="0 0 22.616 23.8">
  <g id="Group_518" data-name="Group 518" transform="translate(-4603.804 -893.845)">
    <path id="Path_1196" data-name="Path 1196" d="M4625.8,917.645H4604.42a.883.883,0,0,1-.616-.9q.009-10.982,0-21.964c0-.643.293-.934.938-.934h20.732c.641,0,.935.295.935.938q0,8.344,0,16.688c0,.4,0,.79,0,1.185a.761.761,0,0,1-.742.77c-.108.008-.217.007-.325.007H4605.4v2.618h19.43c0-.378,0-.741,0-1.1a.792.792,0,1,1,1.578,0c0,.566-.018,1.132.006,1.7A.908.908,0,0,1,4625.8,917.645Zm-8.99-5.789c.364,0,.7-.008,1.043,0a.347.347,0,0,0,.34-.179,9.8,9.8,0,0,0,1.151-2.626,36.884,36.884,0,0,0,1.294-8.262c.074-1.175.094-2.353.143-3.529a.787.787,0,0,1,1.573-.013c.006.077,0,.155,0,.232a59.893,59.893,0,0,1-.545,7.433,26.146,26.146,0,0,1-1.362,5.721c-.153.4-.333.794-.506,1.208h4.872v-8.977a3.656,3.656,0,0,0-.079.5,46.277,46.277,0,0,1-.846,5.551,15.976,15.976,0,0,1-.419,1.566.723.723,0,0,1-.833.435.784.784,0,0,1-.6-1.065,42.939,42.939,0,0,0,1.121-6.631c.262-2.5.386-5,.452-7.513,0-.09,0-.181,0-.274h-3.764c-.092,1.323-.167,2.629-.277,3.931a23.469,23.469,0,0,1-1.117,5.68,7.5,7.5,0,0,1-1.475,2.688,3.008,3.008,0,0,1-4.553.031,8.335,8.335,0,0,1-1.78-3.4,31.071,31.071,0,0,1-1.162-7.67c-.02-.415,0-.832,0-1.259H4605.4a.792.792,0,0,0-.013.1q0,1.859,0,3.719a.678.678,0,0,0,.048.224,31.057,31.057,0,0,1,1.145,3.988,29.7,29.7,0,0,1,.714,6.543.8.8,0,0,1-.792.9c-.478,0-.777-.345-.788-.9-.011-.573-.011-1.147-.051-1.718-.054-.777-.142-1.552-.215-2.328l-.049,0v5.87h2.974c.029-.424.072-.832.081-1.241a34.182,34.182,0,0,0-.539-6.5c-.369-2.157-.833-4.3-1.252-6.446a1.419,1.419,0,0,1-.039-.458.773.773,0,0,1,.752-.664.788.788,0,0,1,.808.686,78.559,78.559,0,0,1,1.7,9.8,24.326,24.326,0,0,1,.112,4.246c-.014.189-.027.378-.041.559h2.019a4.391,4.391,0,0,1-1.248-2.448.79.79,0,0,1,.635-.969.8.8,0,0,1,.911.666,5.5,5.5,0,0,0,.188.693,2,2,0,0,0,3.142.971,4.423,4.423,0,0,0,1.1-1.248.771.771,0,0,1,1.08-.244.785.785,0,0,1,.247,1.081,4.308,4.308,0,0,1-.374.559C4617.392,911.211,4617.111,911.516,4616.813,911.856Zm-5.79-16.424c0,.075,0,.128,0,.181a43.448,43.448,0,0,0,.57,5.725,17.583,17.583,0,0,0,1.056,3.862,4.711,4.711,0,0,0,.906,1.475,1.45,1.45,0,0,0,1.7.417,2.351,2.351,0,0,0,.925-.89,9.321,9.321,0,0,0,1.2-3.122,37.981,37.981,0,0,0,.84-7.531.9.9,0,0,0-.013-.116Z" transform="translate(0 0)" fill="#545454"/>
    <path id="Path_1197" data-name="Path 1197" d="M4759.734,933.513a7.733,7.733,0,0,1-.526,3.1,2.2,2.2,0,0,1-1.1,1.205,1.675,1.675,0,0,1-2.163-.733,4.318,4.318,0,0,1-.578-1.771,9.5,9.5,0,0,1,.284-4.065,4.442,4.442,0,0,1,.579-1.228,1.521,1.521,0,0,1,2.663.076,5.328,5.328,0,0,1,.735,2.251C4759.688,932.8,4759.711,933.254,4759.734,933.513Zm-2.14-2.605-.116,0c-.087.2-.192.385-.259.587a7.65,7.65,0,0,0-.307,3.44,6.377,6.377,0,0,0,.368,1.284c.072.2.2.209.316.024a2.358,2.358,0,0,0,.3-.621,7.29,7.29,0,0,0,.024-3.765C4757.844,931.535,4757.706,931.225,4757.595,930.908Z" transform="translate(-142.664 -33.367)" fill="#545454"/>
  </g>
</svg>
