<svg xmlns="http://www.w3.org/2000/svg" width="27.32" height="25.96" viewBox="0 0 27.32 25.96">
  <g id="Group_517" data-name="Group 517" transform="translate(174.289 194.14)">
    <path id="Path_1331" data-name="Path 1331" d="M-157.905-190.022v2.724c-.148,0-.282,0-.414,0-1.132.03-2.264.047-3.4.1a7.7,7.7,0,0,0-1.2.193,2.629,2.629,0,0,0-.483.214,3.728,3.728,0,0,0,1.219.518,11.563,11.563,0,0,0,3.191.327,15.889,15.889,0,0,0,4.242-.581,4.242,4.242,0,0,0,1.721-.894,1.546,1.546,0,0,0,.536-1.575,1.374,1.374,0,0,0-.266-.51,4.1,4.1,0,0,0-1.97-1.243,13.94,13.94,0,0,0-4.767-.645c-1.215.023-2.431.033-3.644.1a18.557,18.557,0,0,0-4.843.8,6.214,6.214,0,0,0-2.165,1.166,4.134,4.134,0,0,0-1.387,2.762,4.024,4.024,0,0,0,1.822,3.822,10.532,10.532,0,0,0,4.047,1.831,16.175,16.175,0,0,0,4.149.423c1.148-.021,2.3-.024,3.443-.066,1.019-.037,2.039-.087,3.053-.186q1.733-.169,3.454-.443a5.262,5.262,0,0,0,1.518-.461,2.249,2.249,0,0,1,1.07-.208c.652,0,1.3,0,2,0,0,.388,0,.759,0,1.13q0,1.744,0,3.489,0,1.677-.006,3.353c0,.48-.02.961,0,1.44a2.131,2.131,0,0,1-.946,1.864,7.255,7.255,0,0,1-2.727,1.233c-1.088.271-2.191.5-3.3.663-1.177.17-2.368.263-3.556.341-1.219.08-2.442.113-3.664.145a19.235,19.235,0,0,1-4.959-.449,14.479,14.479,0,0,1-3.915-1.491,9.1,9.1,0,0,1-3.372-3.14,5.487,5.487,0,0,1-.862-2.805c-.02-1.771-.012-3.541-.014-5.312q0-2.318,0-4.637a7.444,7.444,0,0,1,.846-3.618,6.85,6.85,0,0,1,3.123-2.882,14.983,14.983,0,0,1,4.608-1.3,46.489,46.489,0,0,1,6.737-.31,15.92,15.92,0,0,1,4.981.755,7.342,7.342,0,0,1,3.352,2.137,4.152,4.152,0,0,1,.246,4.925,6.008,6.008,0,0,1-3.016,2.209,16.446,16.446,0,0,1-5.833.9,12.6,12.6,0,0,1-3.952-.525,4.59,4.59,0,0,1-2.353-1.5,2.675,2.675,0,0,1,.557-3.8,5.946,5.946,0,0,1,2.452-.82,29.928,29.928,0,0,1,4.537-.183A.71.71,0,0,1-157.905-190.022Zm2.738,18.679v-2.29h2.739v1.883a12.006,12.006,0,0,0,2.586-.72c.132-.058.137-.154.137-.273q0-2.351.006-4.7c0-.59,0-1.18,0-1.8-.194.072-.358.14-.526.195a24.964,24.964,0,0,1-5.909,1.072c-1.435.11-2.874.168-4.312.219a21.968,21.968,0,0,1-4.685-.25,14.118,14.118,0,0,1-6.266-2.611,1.4,1.4,0,0,0-.167-.092c0,.1,0,.166,0,.232,0,1.275.023,2.551,0,3.825a3.913,3.913,0,0,0,1.03,2.773,6.584,6.584,0,0,0,1.776,1.4c.409.224.838.411,1.3.634v-4.521h2.729v5.307l1.37.152v-2.722h2.737v2.7h1.36v-5.442h2.733v5.194Z" fill="#545454"/>
  </g>
</svg>
