<svg xmlns="http://www.w3.org/2000/svg" width="26.163" height="26.159" viewBox="0 0 26.163 26.159">
  <g id="Group_519" data-name="Group 519" transform="translate(273.823 323.377)">
    <path id="Path_1334" data-name="Path 1334" d="M-268.293-310.113l-5.53-5.528,7.739-7.732,5.521,5.526,5.522-5.53,7.38,7.38-5.507,5.5,5.436,5.426-7.751,7.75-5.423-5.432c-.238.242-.452.462-.668.679q-1.726,1.729-3.456,3.453a.559.559,0,0,1-.294.139q-4.157.63-8.316,1.249c-.047.007-.094.011-.168.019.021-.154.038-.291.058-.427q.48-3.211.96-6.422c.083-.556.165-1.113.256-1.668a.487.487,0,0,1,.121-.251q2-2.008,4.006-4.007C-268.37-310.027-268.339-310.064-268.293-310.113Zm13.271-9.441c-.029.026-.066.056-.1.09q-1.43,1.428-2.86,2.857l-6.095,6.1q-2.876,2.876-5.754,5.749a.6.6,0,0,0-.183.364c-.148,1.017-.3,2.033-.456,3.05-.045.3-.088.605-.135.922.072,0,.119,0,.166-.012q1.959-.293,3.916-.591a.375.375,0,0,0,.19-.105q1.553-1.545,3.1-3.1l6.211-6.208q2.307-2.307,4.615-4.613c.317-.316.643-.624.956-.928Zm-.452,19.689,5.182-5.183-1.368-1.361-1.678,1.707-.766-.745,1.7-1.689-1.035-1.036-1.715,1.721c-.21-.216-.42-.441-.639-.656-.078-.076-.076-.12,0-.195.322-.313.637-.634.957-.949.226-.223.456-.442.685-.663l-.273-.284-5.195,5.193Zm-9.226-16.181,1.687-1.672-1-1.029-1.681,1.7-.773-.762,1.716-1.693-1.345-1.351-5.181,5.179,4.256,4.261,5.163-5.164-.368-.414-1.707,1.716Z" fill="#545454"/>
    <path id="Path_1335" data-name="Path 1335" d="M-141.323-114.588a1.073,1.073,0,0,1,1.085-1.093,1.076,1.076,0,0,1,1.083,1.063,1.073,1.073,0,0,1-1.053,1.107A1.068,1.068,0,0,1-141.323-114.588Z" transform="translate(-128.195 -200.948)" fill="#545454"/>
  </g>
</svg>
