<svg xmlns="http://www.w3.org/2000/svg" width="26" height="20" viewBox="0 0 26 20">
  <g id="icon_2_" data-name="icon (2)" transform="translate(0 -3)">
    <path id="Path_1392" data-name="Path 1392" d="M25.484,7.114,21.206,3.2a1,1,0,0,0-.6-.2H5.38a1,1,0,0,0-.6.2L.4,7.2A.977.977,0,0,0,0,8v2a1,1,0,0,0,1,1H25a1,1,0,0,0,1-1V8A1.226,1.226,0,0,0,25.484,7.114Z" fill="#545454"/>
    <path id="Path_1393" data-name="Path 1393" d="M2,23a1,1,0,0,1-1-1V10H4V22a1,1,0,0,1-1,1Z" fill="#545454"/>
    <path id="Path_1394" data-name="Path 1394" d="M23,23a1,1,0,0,1-1-1V10h3V22a1,1,0,0,1-1,1Z" fill="#545454"/>
    <path id="Path_1395" data-name="Path 1395" d="M20,18a1,1,0,0,1-1-1V12h2v5a1,1,0,0,1-1,1Z" fill="#545454"/>
    <path id="Path_1396" data-name="Path 1396" d="M6,18a1,1,0,0,1-1-1V12H7v5a1,1,0,0,1-1,1Z" fill="#545454"/>
  </g>
</svg>
