<svg xmlns="http://www.w3.org/2000/svg" width="70.082" height="67.273" viewBox="0 0 70.082 67.273">
  <g id="_003-clock" data-name="003-clock" transform="translate(0 0)">
    <g id="XMLID_386_" transform="translate(0 0)">
      <path id="XMLID_389_" d="M69.947,47.136A27.627,27.627,0,0,0,48.463,22.91V19.432a4.654,4.654,0,0,0-1.123-9.17H37.485a4.654,4.654,0,0,0-1.123,9.17V22.92a27.485,27.485,0,0,0-13.48,7.415,27.782,27.782,0,0,0-2.324,2.638c-.034,0-.069-.005-.1-.005H10.7a1.369,1.369,0,0,0,0,2.738h8a27.44,27.44,0,0,0-2.429,5.261H1.369a1.369,1.369,0,0,0,0,2.738H15.493a27.831,27.831,0,0,0-.679,5.261H8.76a1.369,1.369,0,0,0,0,2.738h6.1a27.79,27.79,0,0,0,.855,5.261H6.844a1.369,1.369,0,0,0,0,2.738h9.741A27.646,27.646,0,0,0,39.7,77.4q1.356.134,2.713.133A27.716,27.716,0,0,0,57.5,73.075a1.369,1.369,0,0,0-1.494-2.294,24.912,24.912,0,1,1,7.337-7.347,1.369,1.369,0,1,0,2.3,1.491A27.738,27.738,0,0,0,69.947,47.136ZM35.568,14.916A1.918,1.918,0,0,1,37.485,13H47.34a1.916,1.916,0,1,1,0,3.833H37.485A1.919,1.919,0,0,1,35.568,14.916ZM39.1,22.449V19.57h6.627v2.874A27.89,27.89,0,0,0,39.1,22.449Z" transform="translate(0 -10.262)" fill="#006300"/>
      <path id="XMLID_391_" d="M437.139,425.5a1.369,1.369,0,1,0,.968.4A1.376,1.376,0,0,0,437.139,425.5Z" transform="translate(-376.121 -368.662)" fill="#006300"/>
      <path id="XMLID_394_" d="M176.106,144.609a21.234,21.234,0,1,0,21.234,21.234A21.258,21.258,0,0,0,176.106,144.609Zm0,39.731a18.5,18.5,0,1,1,18.5-18.5A18.518,18.518,0,0,1,176.106,184.34Z" transform="translate(-133.673 -126.219)" fill="#006300"/>
      <path id="XMLID_397_" d="M272.945,219.812l-6.78,6.78a4.242,4.242,0,0,0-3.758,0l-3.034-3.034a1.369,1.369,0,0,0-1.936,1.936l3.034,3.034a4.253,4.253,0,1,0,7.629,0l6.581-6.581h0l.2-.2a1.369,1.369,0,0,0-1.936-1.936Zm-8.659,12.11a1.516,1.516,0,1,1,1.516-1.516A1.518,1.518,0,0,1,264.286,231.922Z" transform="translate(-221.853 -190.783)" fill="#006300"/>
      <path id="XMLID_398_" d="M400.292,289.86h-1.268a1.369,1.369,0,0,0,0,2.738h1.268a1.369,1.369,0,0,0,0-2.738Z" transform="translate(-343.224 -251.588)" fill="#006300"/>
      <path id="XMLID_399_" d="M195.719,289.616h-1.268a1.369,1.369,0,0,0,0,2.738h1.268a1.369,1.369,0,0,0,0-2.738Z" transform="translate(-166.653 -251.378)" fill="#006300"/>
      <path id="XMLID_400_" d="M301.492,186.825a1.369,1.369,0,0,0,1.369-1.369v-1.268a1.369,1.369,0,1,0-2.738,0v1.268A1.369,1.369,0,0,0,301.492,186.825Z" transform="translate(-259.042 -159.199)" fill="#006300"/>
      <path id="XMLID_424_" d="M301.248,387.393a1.369,1.369,0,0,0-1.369,1.369v1.268a1.369,1.369,0,0,0,2.738,0v-1.268A1.369,1.369,0,0,0,301.248,387.393Z" transform="translate(-258.831 -335.771)" fill="#006300"/>
      <path id="XMLID_425_" d="M1.369,351.44a1.369,1.369,0,1,0,.968,2.337,1.369,1.369,0,0,0-.968-2.337Z" transform="translate(0 -304.739)" fill="#006300"/>
    </g>
  </g>
</svg>
