<svg xmlns="http://www.w3.org/2000/svg" width="89" height="70" viewBox="0 0 89 70">
  <g id="Group_726" data-name="Group 726" transform="translate(-441 -724)">
    <g id="_001-patent" data-name="001-patent" transform="translate(363 724)">
      <g id="Rectangle_276" data-name="Rectangle 276" transform="translate(78 0)" fill="#fff" stroke="#006300" stroke-linejoin="round" stroke-width="3">
        <rect width="76" height="58" rx="4" stroke="none"/>
        <rect x="1.5" y="1.5" width="73" height="55" rx="2.5" fill="none"/>
      </g>
      <line id="Line_33" data-name="Line 33" x2="8" y2="8" transform="translate(90.5 37.5)" fill="none" stroke="#006300" stroke-linecap="round" stroke-width="3"/>
      <line id="Line_34" data-name="Line 34" x2="18" y2="18" transform="translate(88.5 29.5)" fill="none" stroke="#006300" stroke-linecap="round" stroke-width="3"/>
      <line id="Line_35" data-name="Line 35" x2="8" y2="8" transform="translate(99.5 16.5)" fill="none" stroke="#006300" stroke-linecap="round" stroke-width="3"/>
      <line id="Line_36" data-name="Line 36" x2="18" y2="18" transform="translate(97.5 8.5)" fill="none" stroke="#006300" stroke-linecap="round" stroke-width="3"/>
      <line id="Line_37" data-name="Line 37" x1="8" y1="8" transform="translate(132.5 19.5)" fill="none" stroke="#006300" stroke-linecap="round" stroke-width="3"/>
      <line id="Line_38" data-name="Line 38" x1="18" y1="18" transform="translate(124.5 17.5)" fill="none" stroke="#006300" stroke-linecap="round" stroke-width="3"/>
    </g>
    <g id="_001-patent-2" data-name="001-patent" transform="translate(376 736)">
      <g id="Rectangle_276-2" data-name="Rectangle 276" transform="translate(78 0)" fill="#fff" stroke="#006300" stroke-linejoin="round" stroke-width="3">
        <rect width="76" height="58" rx="4" stroke="none"/>
        <rect x="1.5" y="1.5" width="73" height="55" rx="2.5" fill="none"/>
      </g>
      <line id="Line_33-2" data-name="Line 33" x2="8" y2="8" transform="translate(90.5 37.5)" fill="none" stroke="#006300" stroke-linecap="round" stroke-width="3"/>
      <line id="Line_34-2" data-name="Line 34" x2="18" y2="18" transform="translate(88.5 29.5)" fill="none" stroke="#006300" stroke-linecap="round" stroke-width="3"/>
      <line id="Line_35-2" data-name="Line 35" x2="8" y2="8" transform="translate(99.5 16.5)" fill="none" stroke="#006300" stroke-linecap="round" stroke-width="3"/>
      <line id="Line_36-2" data-name="Line 36" x2="18" y2="18" transform="translate(97.5 8.5)" fill="none" stroke="#006300" stroke-linecap="round" stroke-width="3"/>
      <line id="Line_37-2" data-name="Line 37" x1="8" y1="8" transform="translate(132.5 19.5)" fill="none" stroke="#006300" stroke-linecap="round" stroke-width="3"/>
      <line id="Line_38-2" data-name="Line 38" x1="18" y1="18" transform="translate(124.5 17.5)" fill="none" stroke="#006300" stroke-linecap="round" stroke-width="3"/>
    </g>
  </g>
</svg>
