<svg xmlns="http://www.w3.org/2000/svg" width="60.18" height="70.083" viewBox="0 0 60.18 70.083">
  <g id="_002-machinery" data-name="002-machinery" transform="translate(0 0)">
    <path id="Path_1297" data-name="Path 1297" d="M239.319,157.418a4.1,4.1,0,1,0,4.1,4.1A4.1,4.1,0,0,0,239.319,157.418Zm0,5.455a1.359,1.359,0,1,1,1.359-1.359A1.36,1.36,0,0,1,239.319,162.873Zm0,0" transform="translate(-203.093 -135.87)" fill="#006300"/>
    <path id="Path_1298" data-name="Path 1298" d="M41.738,286.693h0a1.369,1.369,0,1,0,1.369-1.37A1.368,1.368,0,0,0,41.738,286.694Zm0,0" transform="translate(-36.093 -246.269)" fill="#006300"/>
    <path id="Path_1299" data-name="Path 1299" d="M59.31,0H20.3a1.369,1.369,0,0,0,0,2.738h2.357V5.687a2.783,2.783,0,0,0,2.78,2.78h.309l.794,11.948L3.819,34.462c-.04.025-.079.052-.116.08a7,7,0,0,0-1.084,10.9c.016.018.03.035.048.052L15.371,58.2a1.366,1.366,0,0,0,.938.985c-.539,1.861-1.067,4.086.089,6.088a1.369,1.369,0,0,0,1.843.517c.959,1.714,2.185,3.662,4.363,4.245A1.368,1.368,0,0,0,24.27,69.1c1.862.539,4.086,1.067,6.088-.089a1.369,1.369,0,0,0,.517-1.843c1.714-.959,3.662-2.185,4.245-4.363a1.368,1.368,0,0,0-.931-1.666c.539-1.862,1.067-4.086-.089-6.089a1.369,1.369,0,0,0-1.837-.52c-.935-1.7-2.134-3.643-4.368-4.242a1.369,1.369,0,0,0-1.667.931,14.887,14.887,0,0,0-2.579-.558l-5.181-7.1,1.9-.76a1.369,1.369,0,0,0-1.02-2.54L16.8,41.282,13.392,36.6l-.01-.012a7.044,7.044,0,0,0-3.39-2.727L26.744,23.507l.147,2.213a9.848,9.848,0,0,0,6.159,9.045l-2.273.912A1.369,1.369,0,1,0,31.8,38.218l8.421-3.378.035-.016a9.85,9.85,0,0,0,6.3-8.888c0-.007,0-.014,0-.022l1.15-17.446h.309a2.783,2.783,0,0,0,2.78-2.78V2.738H59.31A1.369,1.369,0,0,0,59.31,0ZM14.239,42.412l6.331,8.681c-.145.066-.289.139-.431.221a1.369,1.369,0,0,0-.517,1.843,11.576,11.576,0,0,0-3.119,2.3L8.423,47.38a7.018,7.018,0,0,0,5.816-4.967ZM26.834,54.249a1.369,1.369,0,0,0,1.517-.6,11.214,11.214,0,0,1,1.722,2.591c.156.286.318.582.479.862a1.369,1.369,0,0,0,1.5.649,11.217,11.217,0,0,1-.615,3.051c-.092.312-.187.635-.271.947a1.371,1.371,0,0,0,.589,1.511,12.114,12.114,0,0,1-2.649,1.763c-.272.151-.54.3-.794.445a1.368,1.368,0,0,0-.649,1.5,11.265,11.265,0,0,1-3.052-.615c-.312-.092-.635-.187-.947-.271a1.368,1.368,0,0,0-1.511.589,12.138,12.138,0,0,1-1.763-2.649c-.15-.272-.3-.539-.445-.793a1.369,1.369,0,0,0-1.5-.649,11.217,11.217,0,0,1,.615-3.051c.036-.123.073-.249.109-.373,0-.006,0-.012.005-.019.054-.186.107-.373.156-.556a1.371,1.371,0,0,0-.589-1.511,12.134,12.134,0,0,1,2.649-1.763c.273-.15.54-.3.794-.445a1.369,1.369,0,0,0,.649-1.5,11.231,11.231,0,0,1,3.049.615c.313.092.637.188.95.272ZM11.782,40.661A4.276,4.276,0,1,1,7.51,36.149c.079,0,.158,0,.238.006a4.281,4.281,0,0,1,4.033,4.505Zm24.943-7.919a7.1,7.1,0,1,1,7.1-7.1A7.106,7.106,0,0,1,36.725,32.742Zm7.522-13.426a9.818,9.818,0,0,0-15.038-.007l-.72-10.842H44.962Zm3.81-13.629a.048.048,0,0,1-.043.042H25.436a.047.047,0,0,1-.042-.042V2.738H48.056Zm0,0" transform="translate(-0.499 0)" fill="#006300"/>
    <path id="Path_1300" data-name="Path 1300" d="M91.517,2.738a1.369,1.369,0,0,0,0-2.738h0a1.369,1.369,0,1,0,0,2.738Zm0,0" transform="translate(-77.877 0)" fill="#006300"/>
    <path id="Path_1301" data-name="Path 1301" d="M174.559,276.748h0a1.369,1.369,0,1,0,1.751.829,1.369,1.369,0,0,0-1.751-.829Zm0,0" transform="translate(-149.949 -238.797)" fill="#006300"/>
    <path id="Path_1302" data-name="Path 1302" d="M172.674,432.281h0a1.369,1.369,0,1,0-1.37-1.369A1.368,1.368,0,0,0,172.675,432.281Zm0,0" transform="translate(-147.925 -370.747)" fill="#006300"/>
  </g>
</svg>
