<svg xmlns="http://www.w3.org/2000/svg" width="65.703" height="63.513" viewBox="0 0 65.703 63.513">
  <g id="_005-patent-1" data-name="005-patent-1" transform="translate(0 0)">
    <path id="Path_1312" data-name="Path 1312" d="M60.228,0H14.236A5.482,5.482,0,0,0,8.76,5.475V48.182H1.1a1.1,1.1,0,0,0-1.1,1.1v2.19a5.482,5.482,0,0,0,5.475,5.475H39.448v5.475a1.095,1.095,0,0,0,1.752.876L44.923,60.5l3.723,2.792a1.088,1.088,0,0,0,.657.219,1.078,1.078,0,0,0,1.1-1.1V56.943h1.069a5.482,5.482,0,0,0,5.475-5.475V8.76h7.665a1.1,1.1,0,0,0,1.1-1.1V5.475A5.482,5.482,0,0,0,60.228,0ZM39.448,54.752H5.475A3.285,3.285,0,0,1,2.19,51.467v-1.1H39.448Zm8.76,5.475L45.58,58.257a1.094,1.094,0,0,0-1.314,0l-2.628,1.971V48a3.233,3.233,0,0,0,.635-.012,3.336,3.336,0,0,0,5.274,0A3.253,3.253,0,0,0,48.2,48Zm1.408-17.543a1.1,1.1,0,0,0-.622,1.5,1.138,1.138,0,0,1-1.512,1.52,1.095,1.095,0,0,0-1.5.622,1.134,1.134,0,0,1-2.139,0,1.094,1.094,0,0,0-1.5-.622,1.138,1.138,0,0,1-1.511-1.52,1.1,1.1,0,0,0-.621-1.5,1.139,1.139,0,0,1,0-2.146,1.1,1.1,0,0,0,.621-1.5,1.138,1.138,0,0,1,1.511-1.521,1.094,1.094,0,0,0,1.5-.622,1.134,1.134,0,0,1,2.139,0,1.095,1.095,0,0,0,1.5.622,1.138,1.138,0,0,1,1.512,1.52,1.1,1.1,0,0,0,.622,1.5,1.14,1.14,0,0,1,0,2.146ZM55.763,2.327c-.062.088-.117.181-.174.273a5.482,5.482,0,0,0-.315.58c-.049.11-.1.211-.138.318a5.558,5.558,0,0,0-.2.657c-.025.1-.057.2-.076.3a5.457,5.457,0,0,0-.1,1.016V51.467A3.23,3.23,0,0,1,50.4,54.551V46.934a3.284,3.284,0,0,0,.876-2.683,3.345,3.345,0,0,0,0-5.278,3.34,3.34,0,0,0-3.724-3.734,3.336,3.336,0,0,0-5.274,0,3.34,3.34,0,0,0-3.723,3.734,3.345,3.345,0,0,0,0,5.278,3.292,3.292,0,0,0,.9,2.715v1.216H10.95V5.475A3.285,3.285,0,0,1,14.236,2.19H55.847c-.03.043-.053.092-.084.137Zm7.75,4.243h-6.57v-1.1a3.285,3.285,0,1,1,6.57,0Zm0,0" fill="#006300"/>
    <path id="Path_1313" data-name="Path 1313" d="M264,64h4.38v2.19H264Zm0,0" transform="translate(-227.863 -55.24)" fill="#006300"/>
    <path id="Path_1314" data-name="Path 1314" d="M184,64h8.76v2.19H184Zm0,0" transform="translate(-158.814 -55.24)" fill="#006300"/>
    <path id="Path_1315" data-name="Path 1315" d="M160,104h21.9v2.19H160Zm0,0" transform="translate(-138.099 -89.764)" fill="#006300"/>
    <path id="Path_1316" data-name="Path 1316" d="M120,152h5.475v2.19H120Zm0,0" transform="translate(-103.574 -131.194)" fill="#006300"/>
    <path id="Path_1317" data-name="Path 1317" d="M120,192h12.046v2.19H120Zm0,0" transform="translate(-103.574 -165.719)" fill="#006300"/>
    <path id="Path_1318" data-name="Path 1318" d="M176,152h25.186v2.19H176Zm0,0" transform="translate(-151.909 -131.194)" fill="#006300"/>
    <path id="Path_1319" data-name="Path 1319" d="M224,192h18.616v2.19H224Zm0,0" transform="translate(-193.339 -165.719)" fill="#006300"/>
    <path id="Path_1320" data-name="Path 1320" d="M120,232h21.9v2.19H120Zm0,0" transform="translate(-103.574 -200.244)" fill="#006300"/>
    <path id="Path_1321" data-name="Path 1321" d="M120,272h18.616v2.19H120Zm0,0" transform="translate(-103.574 -234.768)" fill="#006300"/>
  </g>
</svg>
