<svg xmlns="http://www.w3.org/2000/svg" width="70.083" height="70.084" viewBox="0 0 70.083 70.084">
  <g id="_001-patent" data-name="001-patent" transform="translate(0 0)">
    <g id="Group_446" data-name="Group 446" transform="translate(0)">
      <g id="Group_445" data-name="Group 445">
        <path id="Path_1291" data-name="Path 1291" d="M65.7,0H4.382A4.38,4.38,0,0,0,0,4.38V54.022a4.38,4.38,0,0,0,4.38,4.38H39.424v-2.92H4.382a1.46,1.46,0,0,1-1.46-1.46V4.38a1.46,1.46,0,0,1,1.46-1.46H65.7a1.46,1.46,0,0,1,1.46,1.46V54.022a1.46,1.46,0,0,1-1.46,1.46h-2.92V58.4H65.7a4.38,4.38,0,0,0,4.38-4.38V4.38A4.38,4.38,0,0,0,65.7,0Z" transform="translate(-0.002)" fill="#006300"/>
      </g>
    </g>
    <g id="Group_448" data-name="Group 448" transform="translate(7.3 7.3)">
      <g id="Group_447" data-name="Group 447">
        <path id="Path_1292" data-name="Path 1292" d="M107.357,60.633a5.84,5.84,0,0,1-5.84-5.84,1.46,1.46,0,0,0-1.46-1.46H62.1a1.46,1.46,0,0,0-1.46,1.46,5.84,5.84,0,0,1-5.84,5.84,1.46,1.46,0,0,0-1.46,1.46V88.375a1.46,1.46,0,0,0,1.46,1.46,5.84,5.84,0,0,1,5.84,5.84,1.46,1.46,0,0,0,1.46,1.46H81.076v-2.92H63.434a8.785,8.785,0,0,0-7.179-7.179v-23.6a8.785,8.785,0,0,0,7.179-7.179H98.718a8.785,8.785,0,0,0,7.179,7.179v11.8h2.92V62.094A1.46,1.46,0,0,0,107.357,60.633Z" transform="translate(-53.335 -53.333)" fill="#006300"/>
      </g>
    </g>
    <g id="Group_450" data-name="Group 450" transform="translate(37.962 30.661)">
      <g id="Group_449" data-name="Group 449">
        <path id="Path_1293" data-name="Path 1293" d="M290.477,224a13.141,13.141,0,1,0,13.141,13.141A13.141,13.141,0,0,0,290.477,224Zm0,23.361a10.221,10.221,0,1,1,10.22-10.221A10.22,10.22,0,0,1,290.477,247.361Z" transform="translate(-277.336 -224)" fill="#006300"/>
      </g>
    </g>
    <g id="Group_452" data-name="Group 452" transform="translate(42.342 52.562)">
      <g id="Group_451" data-name="Group 451">
        <path id="Path_1294" data-name="Path 1294" d="M323.937,384v13.022l-4.928-3.942a1.46,1.46,0,0,0-1.825,0l-4.928,3.942V384h-2.92v16.061a1.46,1.46,0,0,0,2.373,1.14l6.388-5.11,6.388,5.11a1.461,1.461,0,0,0,2.373-1.14V384Z" transform="translate(-309.336 -384)" fill="#006300"/>
      </g>
    </g>
    <g id="Group_454" data-name="Group 454" transform="translate(18.981 14.601)">
      <g id="Group_453" data-name="Group 453">
        <path id="Path_1295" data-name="Path 1295" d="M169.33,106.667h-29.2a1.46,1.46,0,0,0-1.46,1.46v5.84a1.46,1.46,0,0,0,1.46,1.46h29.2a1.46,1.46,0,0,0,1.46-1.46v-5.84A1.46,1.46,0,0,0,169.33,106.667Zm-1.46,5.84H141.589v-2.92H167.87Z" transform="translate(-138.669 -106.667)" fill="#006300"/>
      </g>
    </g>
    <g id="Group_456" data-name="Group 456" transform="translate(17.521 27.741)">
      <g id="Group_455" data-name="Group 455">
        <rect id="Rectangle_218" data-name="Rectangle 218" width="2.92" height="2.92" fill="#006300"/>
      </g>
    </g>
    <g id="Group_458" data-name="Group 458" transform="translate(23.361 27.741)">
      <g id="Group_457" data-name="Group 457">
        <rect id="Rectangle_219" data-name="Rectangle 219" width="2.92" height="2.92" fill="#006300"/>
      </g>
    </g>
    <g id="Group_460" data-name="Group 460" transform="translate(17.521 33.581)">
      <g id="Group_459" data-name="Group 459">
        <rect id="Rectangle_220" data-name="Rectangle 220" width="17.521" height="2.92" fill="#006300"/>
      </g>
    </g>
    <g id="Group_462" data-name="Group 462" transform="translate(43.802 36.502)">
      <g id="Group_461" data-name="Group 461">
        <path id="Path_1296" data-name="Path 1296" d="M327.3,266.667a7.3,7.3,0,1,0,7.3,7.3A7.3,7.3,0,0,0,327.3,266.667Zm0,11.68a4.38,4.38,0,1,1,4.38-4.38A4.38,4.38,0,0,1,327.3,278.347Z" transform="translate(-320.003 -266.667)" fill="#006300"/>
      </g>
    </g>
    <g id="Group_464" data-name="Group 464" transform="translate(7.3 48.182)">
      <g id="Group_463" data-name="Group 463">
        <rect id="Rectangle_221" data-name="Rectangle 221" width="2.92" height="2.92" fill="#006300"/>
      </g>
    </g>
    <g id="Group_466" data-name="Group 466" transform="translate(59.863 7.3)">
      <g id="Group_465" data-name="Group 465">
        <rect id="Rectangle_222" data-name="Rectangle 222" width="2.92" height="2.92" fill="#006300"/>
      </g>
    </g>
    <g id="Group_468" data-name="Group 468" transform="translate(7.3 7.3)">
      <g id="Group_467" data-name="Group 467">
        <rect id="Rectangle_223" data-name="Rectangle 223" width="2.92" height="2.92" fill="#006300"/>
      </g>
    </g>
  </g>
</svg>
