<svg xmlns="http://www.w3.org/2000/svg" width="56.896" height="56.896" viewBox="0 0 56.896 56.896">
  <g id="project" transform="translate(0)">
    <g id="Group_483" data-name="Group 483">
      <g id="Group_482" data-name="Group 482">
        <path id="Path_1322" data-name="Path 1322" d="M84.154,0H41.483a.948.948,0,0,0-.948.948V15.172h1.9V1.9H83.206V54.051a.933.933,0,0,1-.873.948c-.082,0-.163-.007-.245-.009-.168,0-.336-.009-.5-.026a.106.106,0,0,1-.042-.006,6.647,6.647,0,0,1-5.885-5.879.3.3,0,0,0-.007-.041,6.612,6.612,0,0,1-.034-.678v-1.9a.948.948,0,0,0-.948-.948H42.431V28.448h-1.9V45.516H32.948a.948.948,0,0,0-.948.948v1.9A8.544,8.544,0,0,0,40.534,56.9H82.353a2.824,2.824,0,0,0,2.75-2.845V.948A.948.948,0,0,0,84.154,0ZM40.534,55A6.645,6.645,0,0,1,33.9,48.361v-.948H73.723v.948a8.757,8.757,0,0,0,.054.936c.009.083.025.162.036.244.031.229.069.458.119.683.017.079.039.156.059.235.058.229.123.453.2.675.022.064.045.126.068.19.086.235.184.465.291.691.023.046.044.095.066.138a8.006,8.006,0,0,0,.392.7c.019.03.036.062.055.095a8.518,8.518,0,0,0,.5.7l.03.041a8.741,8.741,0,0,0,.664.742,8.366,8.366,0,0,0,.635.569Z" transform="translate(-28.207)" fill="#006300"/>
        <path id="Path_1323" data-name="Path 1323" d="M31.293,153.483a.948.948,0,0,0,.67-.278l3.793-3.793a.948.948,0,0,0,0-1.341l-3.793-3.793a.948.948,0,0,0-.67-.278H4.741a4.741,4.741,0,1,0,0,9.483Zm-.245-7.438,2.7,2.7-2.7,2.7-.674-2.7ZM7.586,145.9H29.131l-.474,1.9H9.483v1.9H28.656l.474,1.9H7.586ZM1.9,148.741A2.845,2.845,0,0,1,4.741,145.9H5.69v5.69H4.741A2.845,2.845,0,0,1,1.9,148.741Z" transform="translate(0 -126.931)" fill="#006300"/>
        <path id="Path_1324" data-name="Path 1324" d="M176.95,118.346H205.4a.948.948,0,0,0,.948-.948V88.95a.948.948,0,0,0-1.619-.67l-28.448,28.448a.948.948,0,0,0,.67,1.619Zm27.5-27.107v2.452h-1.9v1.9h1.9v1.9h-1.9v1.9h1.9v1.9h-1.9v1.9h1.9v1.9h-1.9v1.9h1.9v1.9h-1.9v1.9h1.9v1.9h-1.9v1.9h1.9v1.9h-1.9v-1.9h-1.9v1.9h-1.9v-1.9h-1.9v1.9h-1.9v-1.9h-1.9v1.9h-1.9v-1.9h-1.9v1.9h-1.9v-1.9h-1.9v1.9h-1.9v-1.9h-1.9v1.9h-2.452Z" transform="translate(-155.14 -77.571)" fill="#006300"/>
        <path id="Path_1325" data-name="Path 1325" d="M292.83,214.8h9.023a.948.948,0,0,0,.948-.948V204.83a.948.948,0,0,0-1.619-.67l-9.023,9.023a.948.948,0,0,0,.67,1.619Zm8.074-7.681V212.9H295.12Z" transform="translate(-257.284 -179.715)" fill="#006300"/>
        <rect id="Rectangle_224" data-name="Rectangle 224" width="18.965" height="1.897" transform="translate(24.655 5.69)" fill="#006300"/>
        <rect id="Rectangle_225" data-name="Rectangle 225" width="24.655" height="1.897" transform="translate(21.81 9.483)" fill="#006300"/>
        <rect id="Rectangle_226" data-name="Rectangle 226" width="5.69" height="1.897" transform="translate(16.12 29.396)" fill="#006300"/>
        <rect id="Rectangle_227" data-name="Rectangle 227" width="3.793" height="1.897" transform="translate(16.12 33.189)" fill="#006300"/>
      </g>
    </g>
  </g>
</svg>
