<svg xmlns="http://www.w3.org/2000/svg" width="76.429" height="48.599" viewBox="0 0 76.429 48.599">
  <g id="Group_320" data-name="Group 320" opacity="0.1">
    <g id="Group_318" data-name="Group 318" transform="translate(39.435)">
      <path id="Path_1147" data-name="Path 1147" d="M1863.116,330.616a16.717,16.717,0,0,0-2.679.521,9.264,9.264,0,0,0-4.79,3.226,2.365,2.365,0,0,0-.468,2.566,2.281,2.281,0,0,1-.541,2.7,5.65,5.65,0,0,0-.9,1.234c-.125.246-.241.7-.021.919s.653.106.878-.021c.859-.483,1.637-1.127,2.522-1.548a26.558,26.558,0,0,1,2.571-.833,3.859,3.859,0,0,0,1.113-.607c1.3-1.045,2.512-2.2,3.863-3.169a4.8,4.8,0,0,1,7.3,4.219,8.886,8.886,0,0,1-2.844,6.771c-1.236,1.114-2.5,2.2-3.834,3.2-3.494,2.612-7.069,5.118-10.539,7.761-2.313,1.762-4.251,3.905-4.88,6.856-1.112,5.223.7,9.181,5.386,12.032a18.131,18.131,0,0,0,12.067,2.525c8.456-1.1,13.92-6.136,17.466-13.591.044-.092.082-.188.217-.5l-.927.61c-2.9,1.912-5.743,4.048-9.287,4.51a52.351,52.351,0,0,1-7.419.209c-3.07-.04-5.752-4.3-4.775-7.718a13.815,13.815,0,0,1,3.536-5.67c1.664-1.751,3.449-3.392,5.241-5.014a17.248,17.248,0,0,0,4.941-7.165,10.127,10.127,0,0,0-7.736-13.553,23.71,23.71,0,0,0-2.392-.465A14.489,14.489,0,0,0,1863.116,330.616Z" transform="translate(-1849.55 -330.534)" fill="#fff"/>
      <path id="Path_1148" data-name="Path 1148" d="M1888.707,357.089c-5.728,6.663-11.988,12.637-20.589,15.968a17.582,17.582,0,0,0,2.673.521c4.834.186,9.137-1.54,13.237-3.871,1.119-.636,2.115-1.484,3.186-2.207a4.385,4.385,0,0,0,2.034-3.782c.012-.744.062-1.487.006-2.28a14.509,14.509,0,0,1-5.493,5.572c-2.172,1.421-4.476,2.639-6.722,3.946-.645.417-.87-.049-.2-.349.6-.32,1.2-.634,1.792-.961a30.215,30.215,0,0,0,7.963-6.328C1888.577,361.112,1888.834,360.3,1888.707,357.089Z" transform="translate(-1852.286 -334.447)" fill="#fff"/>
      <path id="Path_1149" data-name="Path 1149" d="M1871.948,366.76a74.888,74.888,0,0,0,6.313-6.458,40.264,40.264,0,0,0,7.94-13.121,3.557,3.557,0,0,0-.22-3.133c-.823-1.4-1.706-2.766-2.681-4.112a54.276,54.276,0,0,1-4.57,15.38,46.178,46.178,0,0,1-9.131,13.041,11.408,11.408,0,0,0,1.018-.526A10.757,10.757,0,0,0,1871.948,366.76Z" transform="translate(-1852.504 -331.919)" fill="#fff"/>
      <path id="Path_1150" data-name="Path 1150" d="M1871.164,368.728c-.75.608-2,1.438-2.748,2.046a42.579,42.579,0,0,0,5.8-2.921,48.4,48.4,0,0,0,12.578-12.586,6.557,6.557,0,0,0,1.023-6.153,9.208,9.208,0,0,0-.664-1.805c-.135.394-.246.8-.407,1.181-3.151,7.55-7.616,14.135-14.15,19.19C1872.179,368,1871.164,368.728,1871.164,368.728Z" transform="translate(-1852.33 -333.006)" fill="#fff"/>
    </g>
    <g id="Group_319" data-name="Group 319">
      <path id="Path_1151" data-name="Path 1151" d="M1826.995,330.616a16.743,16.743,0,0,1,2.679.521,9.261,9.261,0,0,1,4.789,3.226,2.366,2.366,0,0,1,.469,2.566,2.28,2.28,0,0,0,.54,2.7,5.622,5.622,0,0,1,.9,1.234c.125.246.241.7.021.919s-.653.106-.879-.021c-.859-.483-1.636-1.127-2.522-1.548a26.407,26.407,0,0,0-2.571-.833,3.871,3.871,0,0,1-1.113-.607c-1.3-1.045-2.511-2.2-3.863-3.169a4.8,4.8,0,0,0-7.3,4.219,8.887,8.887,0,0,0,2.844,6.771c1.236,1.114,2.5,2.2,3.834,3.2,3.495,2.612,7.069,5.118,10.539,7.761,2.313,1.762,4.252,3.905,4.88,6.856,1.112,5.223-.7,9.181-5.386,12.032a18.128,18.128,0,0,1-12.067,2.525c-8.456-1.1-13.92-6.136-17.466-13.591-.043-.092-.081-.188-.217-.5l.928.61c2.9,1.912,5.742,4.048,9.286,4.51a52.37,52.37,0,0,0,7.42.209c3.071-.04,5.751-4.3,4.774-7.718a13.8,13.8,0,0,0-3.535-5.67c-1.665-1.751-3.45-3.392-5.242-5.014a17.248,17.248,0,0,1-4.939-7.165,10.127,10.127,0,0,1,7.734-13.553,23.7,23.7,0,0,1,2.393-.465A14.488,14.488,0,0,1,1826.995,330.616Z" transform="translate(-1803.566 -330.534)" fill="#fff"/>
      <path id="Path_1152" data-name="Path 1152" d="M1803.872,357.089c5.728,6.663,11.989,12.637,20.59,15.968a17.6,17.6,0,0,1-2.673.521c-4.835.186-9.137-1.54-13.238-3.871-1.118-.636-2.115-1.484-3.185-2.207a4.384,4.384,0,0,1-2.034-3.782c-.011-.744-.061-1.487,0-2.28a14.507,14.507,0,0,0,5.492,5.572c2.173,1.421,4.477,2.639,6.723,3.946.645.417.871-.049.2-.349-.6-.32-1.2-.634-1.794-.961a30.217,30.217,0,0,1-7.962-6.328C1804,361.112,1803.746,360.3,1803.872,357.089Z" transform="translate(-1803.3 -334.447)" fill="#fff"/>
      <path id="Path_1153" data-name="Path 1153" d="M1821.376,366.76a74.771,74.771,0,0,1-6.314-6.458,40.289,40.289,0,0,1-7.94-13.121,3.556,3.556,0,0,1,.219-3.133c.824-1.4,1.706-2.766,2.681-4.112a54.311,54.311,0,0,0,4.569,15.38,46.2,46.2,0,0,0,9.132,13.041c-.66-.32-.409-.189-1.019-.526A10.7,10.7,0,0,1,1821.376,366.76Z" transform="translate(-1803.826 -331.919)" fill="#fff"/>
      <path id="Path_1154" data-name="Path 1154" d="M1821.658,368.728c.751.608,2,1.438,2.749,2.046a42.508,42.508,0,0,1-5.8-2.921,48.377,48.377,0,0,1-12.577-12.586,6.553,6.553,0,0,1-1.024-6.153,9.132,9.132,0,0,1,.665-1.805c.134.394.245.8.406,1.181,3.152,7.55,7.618,14.135,14.151,19.19C1820.644,368,1821.658,368.728,1821.658,368.728Z" transform="translate(-1803.499 -333.006)" fill="#fff"/>
    </g>
  </g>
</svg>
