<svg xmlns="http://www.w3.org/2000/svg" width="15.068" height="15.068" viewBox="0 0 15.068 15.068">
  <g id="Group_362" data-name="Group 362" transform="translate(-5924.997 -1060.645)">
    <path id="Path_1205" data-name="Path 1205" d="M5932.526,1075.713a7.534,7.534,0,1,1,7.539-7.526A7.549,7.549,0,0,1,5932.526,1075.713Zm-5.855-7.533a5.86,5.86,0,1,0,5.859-5.861A5.851,5.851,0,0,0,5926.671,1068.18Z" fill="#006300"/>
    <path id="Path_1206" data-name="Path 1206" d="M6577.823,1255.807l.066-.038,1.731-1.056a.833.833,0,0,1,1.272.605.793.793,0,0,1-.395.818q-1.368.847-2.743,1.685c-.112.068-.222.138-.334.2a.836.836,0,0,1-1.259-.575,1.02,1.02,0,0,1-.013-.177q0-2.851,0-5.7a.837.837,0,0,1,1.673-.069c0,.026,0,.052,0,.078v4.227Z" transform="translate(-644.338 -188.072)" fill="#006300"/>
  </g>
</svg>
