<svg xmlns="http://www.w3.org/2000/svg" width="16.215" height="12.746" viewBox="0 0 16.215 12.746">
  <g id="Group_363" data-name="Group 363" transform="translate(-4478.373 678.689)">
    <path id="Path_1207" data-name="Path 1207" d="M4486.479-678.688q3.283,0,6.566,0a1.487,1.487,0,0,1,1.24.573,1.425,1.425,0,0,1,.3,1.032,2.772,2.772,0,0,1-.735,1.6,7.125,7.125,0,0,1-1.43,1.16q-2.217,1.547-4.437,3.09a7.832,7.832,0,0,1-.762.457,1.462,1.462,0,0,1-1.486-.01c-.407-.232-.8-.488-1.187-.754-1.485-1.029-2.961-2.07-4.447-3.1a5.007,5.007,0,0,1-1.4-1.419,1.833,1.833,0,0,1-.132-1.87,1.315,1.315,0,0,1,1.319-.761c1.014.006,2.029,0,3.044,0Z" transform="translate(0 0)" fill="#006300"/>
    <path id="Path_1208" data-name="Path 1208" d="M4497.793-380.619l4.591-4.59c.3.211.606.426.909.647a5.091,5.091,0,0,0,1.33.685,2.471,2.471,0,0,0,1.834-.114,9.493,9.493,0,0,0,1.743-1.085l.184-.131,4.588,4.591a1.271,1.271,0,0,1-.728.332,2.207,2.207,0,0,1-.292.016h-13.131A1.454,1.454,0,0,1,4497.793-380.619Z" transform="translate(-18.904 -285.677)" fill="#006300"/>
    <path id="Path_1209" data-name="Path 1209" d="M4478.563-516.393V-523.3a5.448,5.448,0,0,0,.472.433c.628.453,1.265.9,1.9,1.338.548.382,1.1.758,1.639,1.128Z" transform="translate(-0.184 -151.259)" fill="#006300"/>
    <path id="Path_1210" data-name="Path 1210" d="M4937.244-519.5l.7-.481c.851-.585,1.7-1.163,2.547-1.758.27-.19.507-.424.759-.637v6.888Z" transform="translate(-446.669 -152.159)" fill="#006300"/>
  </g>
</svg>
