<svg xmlns="http://www.w3.org/2000/svg" width="13.319" height="10.048" viewBox="0 0 13.319 10.048">
  <path id="Path_1146" data-name="Path 1146" d="M3571.357,178.212c0-.02,0-.037,0-.054q0-4.968,0-9.935a.127.127,0,0,1,.01-.033.358.358,0,0,1,.049-.009c.251-.012,13.158,0,13.248.009a.5.5,0,0,1,.009.057c0,.031,0,.062,0,.094v9.727a.657.657,0,0,1,0,.137.107.107,0,0,1-.014.013l-.01,0-.083,0-13.17,0A.151.151,0,0,1,3571.357,178.212Zm1.585-9.1a1.554,1.554,0,0,0,.147.158l3.758,3.8c.246.249.493.5.738.748a.544.544,0,0,0,.213.145.626.626,0,0,0,.69-.145l.081-.081,4.51-4.54.044-.044c.011-.012.026-.024.014-.045Zm3.364,4.74-.09.09-2.8,2.862-.429.439c-.013.013-.036.025-.017.057h9.962c.035,0,.069,0,.1,0a.24.24,0,0,0,.045-.013c-.033-.035-.058-.063-.084-.09l-1.643-1.682-1.534-1.57c-.021-.022-.045-.041-.071-.064-.03.028-.055.052-.079.076-.174.175-.348.349-.521.524a1.487,1.487,0,0,1-1.029.457,1.506,1.506,0,0,1-1.194-.46q-.27-.275-.541-.548Zm-.664-.665a.445.445,0,0,0-.082-.091l-3.128-3.168-.1-.1c-.012-.012-.024-.026-.046-.01q0,3.383,0,6.769c0,.005.007.01.012.018a.1.1,0,0,0,.025-.012C3572.445,176.476,3575.6,173.245,3575.643,173.185Zm8.1,3.429V170.02c0-.035,0-.069,0-.1a.223.223,0,0,0-.012-.045c-.022.019-.039.03-.053.044-.519.5-3.2,3.213-3.261,3.3.049.067,3.066,3.166,3.278,3.367A.528.528,0,0,0,3583.745,176.613Z" transform="translate(-3571.353 -168.176)" fill="#006300"/>
</svg>
