<svg xmlns="http://www.w3.org/2000/svg" width="52.067" height="55.697" viewBox="0 0 52.067 55.697">
  <g id="Group_444" data-name="Group 444" transform="translate(-1654.255 769.429)">
    <path id="Path_1289" data-name="Path 1289" d="M1810.7-741.111a8.377,8.377,0,0,0-1.691-1.756c-.279-.241-.327-.414-.037-.675a7.809,7.809,0,0,0,.66-.721,5.073,5.073,0,0,0,.185-6.368,5.193,5.193,0,0,0-4.322-1.883c-3.956-.034-7.912-.013-11.867-.015-.632,0-1.265-.012-1.9,0-.368.01-.438-.127-.387-.48.12-.825.189-1.656.28-2.485.142-1.392.033-2.787.06-4.181a9.9,9.9,0,0,0-.529-3.273h0a10.193,10.193,0,0,0-1.345-3.062c-1.612-2.521-3.819-3.823-6.9-3.314-1.1.181-1.323.375-1.3,1.46.049,2.446.1,4.892.178,7.337a5.549,5.549,0,0,1-.793,3.086c-2.254,3.8-4.679,7.5-6.74,11.415a1.546,1.546,0,0,0-.2.748q.016,13.427.013,26.854c0,.51.183.608.637.608q12.754-.013,25.509-.006a3.736,3.736,0,0,0,1.493-.266,5.956,5.956,0,0,0,3.166-3.315,4.084,4.084,0,0,0-.24-4.031c-.18-.282-.134-.45.21-.6a9.74,9.74,0,0,0,1.8-.9c2.146-1.5,3.348-3.832,1.286-6.463a1.835,1.835,0,0,0-.144-.2c-.278-.271-.26-.441.129-.6a7.373,7.373,0,0,0,1.2-.607C1811.163-736.1,1812.3-738.586,1810.7-741.111Z" transform="translate(-105.133)" fill="#006300"/>
    <path id="Path_1290" data-name="Path 1290" d="M1664.95-590.127c-3.322.023-6.645.029-9.967,0-.61-.006-.728.174-.727.747q.025,16.206,0,32.412c0,.5.164.6.622.6,3.363-.019,6.727-.027,10.09,0,.56,0,.661-.167.659-.688-.02-5.382-.012-10.763-.012-16.145h.01c0-5.422-.01-10.845.015-16.267C1665.642-590.044,1665.461-590.13,1664.95-590.127Z" transform="translate(0 -157.358)" fill="#006300"/>
  </g>
</svg>
