<svg xmlns="http://www.w3.org/2000/svg" width="16.137" height="11.08" viewBox="0 0 16.137 11.08">
  <g id="Group_361" data-name="Group 361" transform="translate(-5444 56.692)">
    <path id="Path_1204" data-name="Path 1204" d="M5444-45.714v-1.439c.343,0,.686,0,1.029,0a.1.1,0,0,0,.115-.079q1.856-4.69,3.715-9.378c.009-.024.021-.047.036-.082l3.174,5.574c1.065-1.864,2.122-3.714,3.187-5.575.012.031.021.049.028.067q.135.34.27.68,1.72,4.36,3.442,8.72a.1.1,0,0,0,.107.073c.345,0,.689,0,1.035,0v1.439h-5.64c-.019,0-.039,0-.057,0v-1.434h.848l-.83-2.387-2.389,3.927c-.8-1.312-1.59-2.613-2.39-3.927-.279.8-.553,1.591-.83,2.389h.848v1.436Z" transform="translate(0 0)" fill="#006300"/>
  </g>
</svg>
