<svg xmlns="http://www.w3.org/2000/svg" width="25.34" height="27.182" viewBox="0 0 25.34 27.182">
  <path id="Path_1094" data-name="Path 1094" d="M9362,7709.084a8.526,8.526,0,0,1,1.581-4.918,8.2,8.2,0,0,1,1.654-1.713c.342-.265.652-.567.983-.845a2.073,2.073,0,0,1,1.392-.584,2.041,2.041,0,0,1,1.279.564,5.785,5.785,0,0,1,1.094,1.273,23.136,23.136,0,0,1,1.631,2.684,4.294,4.294,0,0,1,.465,1.687,2.361,2.361,0,0,1-.766,1.9c-.529.492-1.092.951-1.666,1.39a2.29,2.29,0,0,0-1.024,1.435,3,3,0,0,0,.171,1.5,9.846,9.846,0,0,0,1.509,2.647,23.012,23.012,0,0,0,3.253,3.563,6.512,6.512,0,0,0,2.227,1.381,2.094,2.094,0,0,0,2.295-.558c.5-.5,1.008-.975,1.537-1.435a2.6,2.6,0,0,1,2.918-.421,6.393,6.393,0,0,1,1.6,1.007q.987.827,1.945,1.689a4.648,4.648,0,0,1,.955,1.169,1.758,1.758,0,0,1-.324,2.346c-.287.284-.609.53-.9.81a9.256,9.256,0,0,1-2.047,1.546,8.406,8.406,0,0,1-2.824.917,10.037,10.037,0,0,1-5.314-.792,17.315,17.315,0,0,1-4.307-2.683,32.871,32.871,0,0,1-4.471-4.565,27.915,27.915,0,0,1-2.9-4.2,16.182,16.182,0,0,1-1.627-4.051A11.533,11.533,0,0,1,9362,7709.084Z" transform="translate(-9361.997 -7701.023)" fill="#006300"/>
</svg>
