<svg xmlns="http://www.w3.org/2000/svg" width="19.857" height="19.857" viewBox="0 0 19.857 19.857">
  <g id="_004-compass" data-name="004-compass" transform="translate(0)">
    <path id="Path_1178" data-name="Path 1178" d="M15.2,2.327V1.163h1.163V0h-3.49V1.163h1.163V2.327h-6.3a3.94,3.94,0,0,1,0,3.49h2.476a6.369,6.369,0,0,1-4.4,4.4V7.737a3.943,3.943,0,0,1-3.49,0v6.3H1.163V12.876H0v3.49H1.163V15.2H2.326v4.654H3.49v-1.5l2.327-2.327V11.409a7.524,7.524,0,0,0,5.592-5.592h4.617L18.352,3.49h1.5V2.327H15.2Zm0,0" transform="translate(0.001)" fill="#fff"/>
    <path id="Path_1179" data-name="Path 1179" d="M30.838,35.66a2.908,2.908,0,1,0,4.113-4.113,2.978,2.978,0,0,0-4.113,0A2.906,2.906,0,0,0,30.838,35.66Zm1.475-2.638h1.163v1.163H32.313Zm0,0" transform="translate(-28.822 -29.531)" fill="#fff"/>
    <path id="Path_1180" data-name="Path 1180" d="M162.876,150.582a12.4,12.4,0,0,1-1.932,6.658,2.875,2.875,0,0,0-.977-.181,2.912,2.912,0,0,0-2.909,2.909,2.875,2.875,0,0,0,.181.977,12.4,12.4,0,0,1-6.658,1.932H150v1.163h.582a13.555,13.555,0,0,0,7.26-2.1,2.9,2.9,0,1,0,4.1-4.1,13.555,13.555,0,0,0,2.1-7.26V150h-1.163Zm0,0" transform="translate(-144.183 -144.183)" fill="#fff"/>
    <path id="Path_1181" data-name="Path 1181" d="M1.219,1.212A3.935,3.935,0,0,1,2.672.31,1.784,1.784,0,0,0,.49.485,1.783,1.783,0,0,0,.3,2.643a4.044,4.044,0,0,1,.919-1.431Zm0,0" transform="translate(-0.025 -0.02)" fill="#fff"/>
  </g>
</svg>
