<svg xmlns="http://www.w3.org/2000/svg" width="19.783" height="19.782" viewBox="0 0 19.783 19.782">
  <g id="drawing" transform="translate(0 0)">
    <path id="Path_1182" data-name="Path 1182" d="M122,328.492v2.377h2.377Zm0,0" transform="translate(-117.286 -315.8)" fill="#fff"/>
    <path id="Path_1183" data-name="Path 1183" d="M.58,77.472H2.4V75.656a.58.58,0,0,1,1.159,0v1.816H4.714V75.656a.58.58,0,0,1,1.159,0v1.816H7.032V75.656a.58.58,0,0,1,1.159,0v1.816H9.351V75.656a.58.58,0,0,1,1.159,0v1.816h1.159V75.656a.58.58,0,0,1,1.159,0v1.816h4.057a.58.58,0,0,0,.41-.989L.989,60.177a.579.579,0,0,0-.989.41V76.892a.579.579,0,0,0,.58.58Zm2.975-8.49a.579.579,0,0,1,.989-.41L8.9,72.928a.579.579,0,0,1-.41.989H4.134a.579.579,0,0,1-.58-.58Zm0,0" transform="translate(0 -57.689)" fill="#fff"/>
    <path id="Path_1184" data-name="Path 1184" d="M124.82.17a.579.579,0,0,0-.82,0l-2.459,2.459a.579.579,0,0,0,0,.82l1.23,1.23L124,3.449a.58.58,0,1,1,.82.82L123.59,5.5l.82.82,1.229-1.229a.58.58,0,0,1,.82.82l-1.229,1.229.82.82,1.229-1.229a.58.58,0,0,1,.82.82l-1.229,1.229.82.82,1.229-1.229a.58.58,0,0,1,.82.82l-1.229,1.229.82.82,1.229-1.229a.58.58,0,0,1,.82.82l-1.229,1.229.82.82,1.229-1.229a.58.58,0,1,1,.82.82l-1.229,1.229,1.23,1.23a.579.579,0,0,0,.82,0l2.459-2.459a.579.579,0,0,0,0-.82Zm0,0" transform="translate(-116.681 0)" fill="#fff"/>
  </g>
</svg>
