<svg xmlns="http://www.w3.org/2000/svg" width="18.665" height="16.327" viewBox="0 0 18.665 16.327">
  <g id="_003-eco" data-name="003-eco" transform="translate(0 0)">
    <g id="Group_326" data-name="Group 326" transform="translate(0 0)">
      <path id="Path_1176" data-name="Path 1176" d="M28.321,6s-10.547-.078-14.315,3.69c-3.46,3.461-1.813,7.149.144,9.392a76.72,76.72,0,0,0,8.011-6.923c4.817-4.817-3.236,3.926-6.976,7.964,2.238,1.977,5.957,3.679,9.444.191C28.4,16.546,28.321,6,28.321,6Z" transform="translate(-9.656 -5.999)" fill="#fff"/>
      <path id="Path_1177" data-name="Path 1177" d="M4.495,73.118C1.838,75.117,0,76.243,0,76.243l3.78-.2s.707-.759,1.749-1.885c-.179-.158-.351-.318-.511-.478C4.843,73.505,4.668,73.317,4.495,73.118Z" transform="translate(0 -60.036)" fill="#fff"/>
    </g>
  </g>
</svg>
