<svg id="_001-factory" data-name="001-factory" xmlns="http://www.w3.org/2000/svg" width="17.449" height="19.856" viewBox="0 0 17.449 19.856">
  <g id="Group_325" data-name="Group 325" transform="translate(0)">
    <path id="Path_1168" data-name="Path 1168" d="M4.5,8.676l2.431-.859V2.3H4.5Z" transform="translate(-1.531 -0.167)" fill="#fff"/>
    <path id="Path_1169" data-name="Path 1169" d="M11.685,8.676l2.433-.859V2.3H11.685Z" transform="translate(-2.052 -0.167)" fill="#fff"/>
    <path id="Path_1170" data-name="Path 1170" d="M1.3,20.946H18.747V15.01H1.3Zm8.356-5.021h1.872v2.995H9.655Zm-3.308,0H8.22v2.995H6.347Zm-3.431,0H4.787v2.995H2.916Z" transform="translate(-1.299 -1.089)" fill="#fff"/>
    <path id="Path_1171" data-name="Path 1171" d="M14.628,11.031,14.15,8.607,8.084,11.031,7.358,8.607,1.3,11.031v2.585H18.746V11.031Z" transform="translate(-1.299 -0.624)" fill="#fff"/>
    <path id="Path_1172" data-name="Path 1172" d="M3.2,1.743a1.394,1.394,0,0,0,.727-.416A2.494,2.494,0,0,1,4.494.832,1.035,1.035,0,0,1,5.143.715.54.54,0,0,1,5.536,1a4.592,4.592,0,0,1,.3.649h.049a1.279,1.279,0,0,0,0-.81.863.863,0,0,0-.26-.392A.657.657,0,0,0,5.144.3a1.568,1.568,0,0,0-.737.4,3.835,3.835,0,0,1-.633.406,1.989,1.989,0,0,1-.635.173.753.753,0,0,1-.5-.174A3.929,3.929,0,0,1,1.809,0L1.76.009A1.831,1.831,0,0,0,2.3,1.515,1.052,1.052,0,0,0,3.2,1.743Z" transform="translate(-1.332)" fill="#fff"/>
    <path id="Path_1173" data-name="Path 1173" d="M11.353,1.825a.94.94,0,0,0,.522-.328,1.337,1.337,0,0,1,.38-.354.609.609,0,0,1,.438-.039.381.381,0,0,1,.22.161c.083.11.156.262.255.427h.05a.813.813,0,0,0,.047-.587.633.633,0,0,0-.192-.3A.493.493,0,0,0,12.7.688a1.116,1.116,0,0,0-.526.318,1.721,1.721,0,0,1-.453.269,1.611,1.611,0,0,1-.425.083A.5.5,0,0,1,11,1.245a3.7,3.7,0,0,1-.621-.7l-.049.01a1.183,1.183,0,0,0,.335,1.107A.783.783,0,0,0,11.353,1.825Z" transform="translate(-1.953 -0.039)" fill="#fff"/>
  </g>
</svg>
