<svg xmlns="http://www.w3.org/2000/svg" width="216.762" height="53.5" viewBox="0 0 216.762 53.5">
  <g id="Group_324" data-name="Group 324" transform="translate(-415.404 -45)">
    <g id="Group_321" data-name="Group 321" transform="translate(-1289.647 -406.222)">
      <path id="Path_1155" data-name="Path 1155" d="M1874.327,469.155h4.686l5.468,13.2c.149-.319.253-.522.34-.733q2.49-6,4.966-12a.666.666,0,0,1,.747-.487c1.377.023,2.754.009,4.167.009V487.85h-3.607V476.037l-.149-.053c-.094.186-.2.366-.279.557-1.492,3.587-2.99,7.171-4.458,10.768a.784.784,0,0,1-.883.6,14.809,14.809,0,0,0-1.785-.007c-.42.025-.591-.159-.739-.52q-2.228-5.419-4.484-10.826a1,1,0,0,0-.4-.511v.661c0,3.531-.017,7.061,0,10.592,0,.488-.143.63-.612.613-.85-.031-1.7-.019-2.552-.009-.326,0-.506-.06-.505-.453q.016-9.028.012-18.056A1.158,1.158,0,0,1,1874.327,469.155Z" transform="translate(-48.975 -0.426)"/>
      <path id="Path_1156" data-name="Path 1156" d="M1806.5,470.633v-1.875h3.492v18.663h-3.486v-2.066a9.217,9.217,0,0,1-8.5,2.293,9.9,9.9,0,0,1-5.917-3.72,9.5,9.5,0,0,1,.414-12.148,10.608,10.608,0,0,1,6.76-3.484A8.828,8.828,0,0,1,1806.5,470.633Zm.01,7.56a6.384,6.384,0,0,0-12.767.024c.068,3.831,2.687,6.136,6.4,6.13C1803.978,484.341,1806.452,481.951,1806.511,478.193Z" transform="translate(-9.574)"/>
      <path id="Path_1157" data-name="Path 1157" d="M1836.625,485.584v2h-3.641v-18.77h3.459V470.7a9.276,9.276,0,0,1,8.712-2.034,9.978,9.978,0,0,1,5.882,4,9.421,9.421,0,0,1-1.071,12.278C1846.579,488.269,1840.654,489.457,1836.625,485.584Zm6.172-13.693a6.112,6.112,0,0,0-6.338,6.42c0,3.8,2.708,6.1,6.3,6.129a6.276,6.276,0,1,0,.034-12.549Z" transform="translate(-29.654 -0.053)"/>
      <path id="Path_1158" data-name="Path 1158" d="M2009.654,469.134c0,.325,0,.574,0,.824,0,5.763-.011,11.526.005,17.288,0,.5-.128.679-.638.654a24.066,24.066,0,0,0-2.423-.006c-.5.026-.6-.149-.6-.617.015-3.742,0-7.485,0-11.228a1.634,1.634,0,0,0-.13-.745c-.15.187-.306.369-.449.561q-4.274,5.723-8.535,11.455a1.229,1.229,0,0,1-1.159.586c-.846-.038-1.7-.01-2.592-.01v-18.71h3.609V481.7l.127.064c.163-.2.331-.4.487-.612q4.233-5.674,8.452-11.357a1.422,1.422,0,0,1,1.366-.677C2007.958,469.173,2008.746,469.134,2009.654,469.134Z" transform="translate(-104.638 -0.419)"/>
      <path id="Path_1159" data-name="Path 1159" d="M1926.553,487.984c-3.537-.153-6.552-1.366-8.449-4.5-3.013-4.974-1.4-13.623,7.1-14.7a9.647,9.647,0,0,1,9.112,3.3c2.441,2.9,2.736,6.315,1.552,9.789-1.156,3.393-3.759,5.23-7.224,5.9-.312.061-.629.1-.945.131C1927.318,487.941,1926.935,487.958,1926.553,487.984Zm6.255-9.652a6.211,6.211,0,1,0-6.182,6.271A5.988,5.988,0,0,0,1932.808,478.332Z" transform="translate(-68.851 -0.212)"/>
      <path id="Path_1160" data-name="Path 1160" d="M2042.366,469v18.773h-3.636v-1.145c0-4.486-.01-8.972.013-13.458,0-.559-.144-.749-.71-.72-1.418.073-2.855-.022-4.254.172-2.038.282-2.9,1.6-2.607,3.633a2.178,2.178,0,0,0,1.98,1.958c1.317.191,2.661.2,3.993.28.333.02.667,0,1.123,0-.345.482-.621.873-.9,1.26-1.838,2.526-3.683,5.047-5.509,7.581a1.014,1.014,0,0,1-.937.5c-1.2-.028-2.407-.01-3.791-.01l4.73-6.136a16.545,16.545,0,0,1-2.646-1.785,6.271,6.271,0,0,1-1.455-6.5c.647-2.321,2.455-3.456,4.667-3.934a23.368,23.368,0,0,1,4.04-.452C2038.411,468.948,2040.364,469,2042.366,469Z" transform="translate(-120.552 -0.357)"/>
      <path id="Path_1161" data-name="Path 1161" d="M1970.095,480.092h-2.665c-1.722,0-3.447.03-5.168-.015-.638-.016-.776.2-.768.8.03,2.147-.013,4.3.014,6.444.007.529-.173.65-.657.635-.974-.031-1.949-.009-2.97-.009V469.233h3.564a4.892,4.892,0,0,1,.053.516c.006,2.063.023,4.126,0,6.189-.006.54.125.747.707.74q3.6-.045,7.211,0c.551.006.739-.141.731-.714-.029-2.063-.007-4.126,0-6.189,0-.166.02-.333.033-.542h3.568a3.3,3.3,0,0,1,.061.459c0,5.87-.007,11.741.008,17.611,0,.5-.106.678-.633.646a22.719,22.719,0,0,0-2.422-.006c-.474.022-.626-.112-.622-.6.021-2.127,0-4.254,0-6.381C1970.132,480.69,1970.109,480.419,1970.095,480.092Z" transform="translate(-88.131 -0.473)"/>
      <path id="Path_1162" data-name="Path 1162" d="M1769.647,469.207h10.338v3.363h-6.7v15.3h-3.637Z" transform="translate(0 -0.461)"/>
    </g>
    <text id="КУХНИ" transform="translate(477 58)" font-size="12" font-family="SegoeUI, Segoe UI" letter-spacing="-0.272em"><tspan x="0" y="0">КУХНИ</tspan></text>
    <text id="МЕБЕЛЬ_ОТ_ПРОИЗВОДИТЕЛЯ" data-name="МЕБЕЛЬ ОТ ПРОИЗВОДИТЕЛЯ" transform="translate(480 92)" font-size="8" font-family="SegoeUI, Segoe UI"><tspan x="0" y="0">МЕБЕЛЬ ОТ ПРОИЗВОДИТЕЛЯ</tspan></text>
    <rect id="Rectangle_145" data-name="Rectangle 145" width="7" height="8.753" transform="translate(524 49.718)" fill="#006300"/>
    <rect id="Rectangle_146" data-name="Rectangle 146" width="7" height="8.753" transform="translate(534 49.718)" fill="#ffb300" opacity="0.68"/>
    <rect id="Rectangle_147" data-name="Rectangle 147" width="7" height="8.753" transform="translate(544 49.718)" fill="#006632" opacity="0.19"/>
    <g id="Group_323" data-name="Group 323" transform="translate(10.405 6)">
      <path id="Path_1165" data-name="Path 1165" d="M22.436,0A22.436,22.436,0,1,1,0,22.436,22.436,22.436,0,0,1,22.436,0Z" transform="translate(409.385 43.385)" fill="#006300"/>
      <g id="Group_322" data-name="Group 322" transform="translate(405 49.278)">
        <g id="Group_318" data-name="Group 318" transform="translate(27.956)">
          <path id="Path_1147" data-name="Path 1147" d="M1859.167,330.592a11.839,11.839,0,0,0-1.9.369,6.568,6.568,0,0,0-3.4,2.287,1.677,1.677,0,0,0-.332,1.819,1.617,1.617,0,0,1-.383,1.914,4.011,4.011,0,0,0-.639.875c-.089.175-.171.5-.015.652s.463.075.622-.015c.609-.343,1.161-.8,1.788-1.1a18.839,18.839,0,0,1,1.823-.591,2.742,2.742,0,0,0,.789-.43c.92-.741,1.78-1.561,2.739-2.247a3.4,3.4,0,0,1,5.176,2.991,6.3,6.3,0,0,1-2.016,4.8c-.876.789-1.774,1.562-2.718,2.267-2.477,1.851-5.011,3.628-7.471,5.5a8.388,8.388,0,0,0-3.459,4.86c-.788,3.7.5,6.509,3.818,8.529a12.852,12.852,0,0,0,8.554,1.79c5.995-.783,9.868-4.35,12.382-9.635.031-.065.058-.133.154-.354l-.657.433c-2.056,1.355-4.072,2.87-6.584,3.2a37.118,37.118,0,0,1-5.259.148c-2.177-.028-4.078-3.049-3.385-5.471a9.791,9.791,0,0,1,2.507-4.02c1.18-1.241,2.445-2.4,3.715-3.555a12.229,12.229,0,0,0,3.5-5.079,7.179,7.179,0,0,0-5.484-9.608,16.786,16.786,0,0,0-1.7-.329A10.267,10.267,0,0,0,1859.167,330.592Z" transform="translate(-1849.55 -330.534)" fill="#fff"/>
          <path id="Path_1148" data-name="Path 1148" d="M1882.713,357.089c-4.06,4.724-8.5,8.959-14.6,11.32a12.453,12.453,0,0,0,1.9.369,17.491,17.491,0,0,0,9.384-2.744c.793-.451,1.5-1.052,2.259-1.565a3.109,3.109,0,0,0,1.442-2.681c.008-.527.044-1.054,0-1.616a10.286,10.286,0,0,1-3.894,3.95c-1.54,1.007-3.173,1.871-4.766,2.8-.457.3-.617-.035-.142-.247.424-.227.85-.45,1.271-.681a21.42,21.42,0,0,0,5.645-4.486C1882.621,359.941,1882.8,359.366,1882.713,357.089Z" transform="translate(-1856.894 -341.038)" fill="#fff"/>
          <path id="Path_1149" data-name="Path 1149" d="M1871.265,358.952a53.064,53.064,0,0,0,4.475-4.578,28.545,28.545,0,0,0,5.629-9.3,2.522,2.522,0,0,0-.156-2.221c-.583-.992-1.21-1.961-1.9-2.915a38.484,38.484,0,0,1-3.24,10.9,32.745,32.745,0,0,1-6.473,9.245,8.038,8.038,0,0,0,.721-.373A7.6,7.6,0,0,0,1871.265,358.952Z" transform="translate(-1857.481 -334.253)" fill="#fff"/>
          <path id="Path_1150" data-name="Path 1150" d="M1870.364,362.493c-.532.431-1.416,1.02-1.948,1.451a30.181,30.181,0,0,0,4.11-2.071,34.309,34.309,0,0,0,8.916-8.922,4.65,4.65,0,0,0,.726-4.362,6.546,6.546,0,0,0-.471-1.28c-.1.279-.175.566-.289.837a32.516,32.516,0,0,1-10.031,13.6C1871.083,361.977,1870.364,362.493,1870.364,362.493Z" transform="translate(-1857.012 -337.169)" fill="#fff"/>
        </g>
        <g id="Group_319" data-name="Group 319">
          <path id="Path_1151" data-name="Path 1151" d="M1820.623,330.592a11.86,11.86,0,0,1,1.9.369,6.565,6.565,0,0,1,3.4,2.287,1.677,1.677,0,0,1,.332,1.819,1.616,1.616,0,0,0,.383,1.914,3.988,3.988,0,0,1,.639.875c.089.175.171.5.015.652s-.463.075-.623-.015c-.609-.343-1.16-.8-1.788-1.1a18.726,18.726,0,0,0-1.823-.591,2.75,2.75,0,0,1-.789-.43c-.919-.741-1.78-1.561-2.739-2.247a3.4,3.4,0,0,0-5.176,2.991,6.3,6.3,0,0,0,2.016,4.8c.876.789,1.775,1.562,2.718,2.267,2.477,1.851,5.012,3.628,7.471,5.5a8.387,8.387,0,0,1,3.459,4.86c.788,3.7-.5,6.509-3.819,8.529a12.85,12.85,0,0,1-8.554,1.79c-5.995-.783-9.868-4.35-12.382-9.635-.03-.065-.057-.133-.154-.354l.658.433c2.056,1.355,4.071,2.87,6.583,3.2a37.13,37.13,0,0,0,5.26.148c2.177-.028,4.077-3.049,3.384-5.471a9.782,9.782,0,0,0-2.506-4.02c-1.18-1.241-2.445-2.4-3.716-3.555a12.231,12.231,0,0,1-3.5-5.079,7.179,7.179,0,0,1,5.483-9.608,16.764,16.764,0,0,1,1.7-.329A10.264,10.264,0,0,1,1820.623,330.592Z" transform="translate(-1804.015 -330.534)" fill="#fff"/>
          <path id="Path_1152" data-name="Path 1152" d="M1803.706,357.089c4.061,4.724,8.5,8.959,14.6,11.32a12.473,12.473,0,0,1-1.895.369,17.494,17.494,0,0,1-9.385-2.744c-.793-.451-1.5-1.052-2.258-1.565a3.107,3.107,0,0,1-1.442-2.681c-.008-.527-.044-1.054,0-1.616a10.286,10.286,0,0,0,3.893,3.95c1.54,1.007,3.174,1.871,4.766,2.8.457.3.617-.035.142-.247-.424-.227-.85-.45-1.271-.681a21.421,21.421,0,0,1-5.644-4.486C1803.8,359.941,1803.616,359.366,1803.706,357.089Z" transform="translate(-1803.3 -341.038)" fill="#fff"/>
          <path id="Path_1153" data-name="Path 1153" d="M1817.151,358.952a53.036,53.036,0,0,1-4.476-4.578,28.557,28.557,0,0,1-5.628-9.3,2.52,2.52,0,0,1,.155-2.221c.584-.992,1.21-1.961,1.9-2.915a38.506,38.506,0,0,0,3.239,10.9,32.739,32.739,0,0,0,6.474,9.245,8.06,8.06,0,0,1-.722-.373A7.582,7.582,0,0,1,1817.151,358.952Z" transform="translate(-1804.71 -334.253)" fill="#fff"/>
          <path id="Path_1154" data-name="Path 1154" d="M1816.707,362.493c.532.431,1.417,1.02,1.949,1.451a30.123,30.123,0,0,1-4.111-2.071,34.288,34.288,0,0,1-8.916-8.922,4.645,4.645,0,0,1-.726-4.362,6.437,6.437,0,0,1,.471-1.28c.095.279.174.566.287.837a32.522,32.522,0,0,0,10.032,13.6C1815.988,361.977,1816.707,362.493,1816.707,362.493Z" transform="translate(-1803.834 -337.169)" fill="#fff"/>
        </g>
      </g>
      <g id="Ellipse_37" data-name="Ellipse 37" transform="translate(405 39)" fill="none" stroke="#006300" stroke-width="2">
        <circle cx="26.75" cy="26.75" r="26.75" stroke="none"/>
        <circle cx="26.75" cy="26.75" r="25.75" fill="none"/>
      </g>
    </g>
  </g>
</svg>
