<svg xmlns="http://www.w3.org/2000/svg" width="32.602" height="21.689" viewBox="0 0 32.602 21.689">
  <g id="Group_345" data-name="Group 345" transform="translate(-5165 -796.924)">
    <path id="Path_1198" data-name="Path 1198" d="M5300.608,807.194a1.632,1.632,0,0,1-.8.537q-3.76,1.718-7.521,3.431c-1.121.51-2.239,1.023-3.365,1.519a1.083,1.083,0,0,1-.548.079,15.508,15.508,0,0,1-5.852-2.043,20.883,20.883,0,0,1-5.1-4.26,27.8,27.8,0,0,1-3.536-5.061,1.358,1.358,0,0,1,.767-2.059c.75-.238,1.527-.393,2.293-.578q3.691-.894,7.383-1.783a2.048,2.048,0,0,1,2.282,1.143,14.252,14.252,0,0,0,4.735,5.392,17.586,17.586,0,0,0,7.085,2.771,13.332,13.332,0,0,0,1.448.159.811.811,0,0,1,.735.388Zm-2.648.153c-.142-.044-.212-.069-.285-.087-.723-.18-1.454-.332-2.167-.545a16.905,16.905,0,0,1-5.689-2.946,14.454,14.454,0,0,1-3.124-3.351c-.406-.613-.758-1.262-1.14-1.891a.861.861,0,0,0-1.054-.45c-.76.176-1.518.362-2.276.545l-4.778,1.152-2.3.554c-.376.091-.445.236-.269.574.072.138.159.268.234.4a24.452,24.452,0,0,0,4.624,5.947,18.157,18.157,0,0,0,3.975,2.857,14.757,14.757,0,0,0,4.615,1.536.559.559,0,0,0,.3-.041c.767-.342,1.531-.692,2.3-1.041q2.532-1.152,5.063-2.306C5296.619,807.969,5297.254,807.673,5297.96,807.348Z" transform="translate(-103.006 0)" fill="#006300"/>
    <path id="Path_1199" data-name="Path 1199" d="M5165,1190.989c.113,0,.226-.007.338-.007h19.9v1.15c-.093.006-.185.016-.277.016h-19.73c-.078,0-.155-.009-.233-.014Z" transform="translate(0 -373.535)" fill="#006300"/>
    <path id="Path_1200" data-name="Path 1200" d="M5229.979,982.549q-1.216.584-2.434,1.167-1.958.935-3.92,1.867-2.348,1.118-4.7,2.234a.788.788,0,0,1-.326.061,40.534,40.534,0,0,1-6.119-.447,35.336,35.336,0,0,1-6.867-1.749,28.074,28.074,0,0,1-4.823-2.309c-.251-.151-.536-.3-.521-.655s.309-.479.578-.6q2.083-.946,4.168-1.885c.489-.221.981-.438,1.467-.667.144-.067.226-.083.347.063a24.554,24.554,0,0,0,3.267,3.342,18.369,18.369,0,0,0,4.454,2.745,16.38,16.38,0,0,0,3.89,1.1,1.245,1.245,0,0,0,.754-.1c1.881-.868,3.767-1.725,5.649-2.586,1.112-.508,2.217-1.03,3.337-1.519a2.467,2.467,0,0,1,.8-.143c.324-.024.653-.006.979-.006Z" transform="translate(-33.436 -173.083)" fill="#006300"/>
    <path id="Path_1201" data-name="Path 1201" d="M5200.008,1083.019l-1.9.837-6.752,2.981c-.9.4-1.79.795-2.689,1.182a1.244,1.244,0,0,1-.476.1q-9.787.007-19.574,0h-.305l-.009-.054c.477-.2.952-.393,1.429-.586,1.871-.756,3.747-1.5,5.612-2.274a1.315,1.315,0,0,1,.994.013,33.173,33.173,0,0,0,4.354,1.118,39.638,39.638,0,0,0,7.059.689c.069,0,.138.012.208.017a1.972,1.972,0,0,0,1.03-.169c2.5-1.212,5.017-2.4,7.523-3.608a2.688,2.688,0,0,1,1.363-.33c.623.038,1.249.009,1.874.009H5200C5200,1082.97,5200,1082.995,5200.008,1083.019Z" transform="translate(-3.132 -271.113)" fill="#006300"/>
    <path id="Path_1202" data-name="Path 1202" d="M5559.863,1097.947c0-.343-.009-.68.008-1.016,0-.067.093-.156.164-.189.84-.39,1.686-.77,2.53-1.153l5.253-2.384q1.622-.736,3.242-1.47c.077-.035.159-.055.272-.094,0,.368.006.7-.005,1.039a.24.24,0,0,1-.124.167c-1.277.582-2.557,1.157-3.835,1.736q-2.438,1.1-4.875,2.21-1.266.573-2.535,1.143A.387.387,0,0,1,5559.863,1097.947Z" transform="translate(-374.296 -279.368)" fill="#006300"/>
  </g>
</svg>
