<svg xmlns="http://www.w3.org/2000/svg" width="22" height="22" viewBox="0 0 22 22">
  <g id="Group_329" data-name="Group 329" transform="translate(-831 -50)">
    <g id="Ellipse_40" data-name="Ellipse 40" transform="translate(831 50)" fill="none" stroke="#d4d4d4" stroke-width="1">
      <circle cx="11" cy="11" r="11" stroke="none"/>
      <circle cx="11" cy="11" r="10.5" fill="none"/>
    </g>
    <g id="_003-vk" data-name="003-vk" transform="translate(834 57)">
      <path id="XMLID_807_" d="M12.661,71.352A20.024,20.024,0,0,1,14.1,72.8a4.211,4.211,0,0,1,.516.744c.2.385.019.808-.326.831H12.149a1.655,1.655,0,0,1-1.364-.555c-.3-.3-.572-.624-.857-.936a2.029,2.029,0,0,0-.386-.343.448.448,0,0,0-.714.173,2.252,2.252,0,0,0-.226,1c-.023.5-.176.637-.682.66a5.481,5.481,0,0,1-3.067-.659A6.775,6.775,0,0,1,2.79,71.783,26.01,26.01,0,0,1,.074,66.942c-.171-.382-.046-.586.375-.594.7-.014,1.4-.013,2.1,0a.616.616,0,0,1,.582.436,13.007,13.007,0,0,0,1.422,2.635,2.248,2.248,0,0,0,.537.59.326.326,0,0,0,.555-.163,1.829,1.829,0,0,0,.123-.553,8.231,8.231,0,0,0-.034-1.937.807.807,0,0,0-.688-.739c-.2-.039-.174-.115-.075-.232a.771.771,0,0,1,.657-.327H8.049c.381.075.466.247.518.63l0,2.69c0,.149.074.589.342.688.214.07.355-.1.484-.237a8.343,8.343,0,0,0,1.364-2.1c.164-.331.305-.675.442-1.019a.519.519,0,0,1,.548-.375l2.331,0a1.23,1.23,0,0,1,.206.012c.393.067.5.236.379.62a5.82,5.82,0,0,1-.927,1.607c-.389.538-.8,1.057-1.19,1.6-.354.494-.326.743.114,1.172Zm0,0" transform="translate(0 -66.058)" fill="#d4d4d4" fill-rule="evenodd"/>
    </g>
  </g>
</svg>
