<svg xmlns="http://www.w3.org/2000/svg" width="22" height="22" viewBox="0 0 22 22">
  <g id="Group_330" data-name="Group 330" transform="translate(-857 -50)">
    <g id="Ellipse_41" data-name="Ellipse 41" transform="translate(857 50)" fill="none" stroke="#d4d4d4" stroke-width="1">
      <circle cx="11" cy="11" r="11" stroke="none"/>
      <circle cx="11" cy="11" r="10.5" fill="none"/>
    </g>
    <g id="_005-telegram" data-name="005-telegram" transform="translate(861 56)">
      <path id="XMLID_497_" d="M.21,24.354l2.734,1.02L4,28.777a.322.322,0,0,0,.511.154l1.524-1.242a.455.455,0,0,1,.554-.015l2.749,2a.322.322,0,0,0,.5-.195l2.013-9.685a.322.322,0,0,0-.431-.366L.206,23.751A.322.322,0,0,0,.21,24.354Zm3.621.477L9.174,21.54a.093.093,0,0,1,.112.147l-4.409,4.1a.914.914,0,0,0-.283.547l-.15,1.113a.138.138,0,0,1-.27.02L3.6,25.436A.538.538,0,0,1,3.831,24.831Z" transform="translate(0 -19.401)" fill="#d4d4d4"/>
    </g>
  </g>
</svg>
