<svg xmlns="http://www.w3.org/2000/svg" width="47.214" height="47.214" viewBox="0 0 47.214 47.214">
  <g id="_004-assembly" data-name="004-assembly" transform="translate(0 0)">
    <path id="Path_1233" data-name="Path 1233" d="M243.046,264h-1.523v1.523H240v1.523h1.523v1.523h1.523v-1.523h1.523v-1.523h-1.523Zm0,0" transform="translate(-217.154 -238.87)" fill="#006300"/>
    <path id="Path_1234" data-name="Path 1234" d="M47.214,14.469V6.854H43.407V3.987L45.4,0H36.844l1.994,3.987V6.854H36.891a3.036,3.036,0,0,0-2.623-1.523H22.084a3.049,3.049,0,0,0-3.046,3.046H15.23V5.331H3.808A3.812,3.812,0,0,0,0,9.138V9.9H8.377v1.523H0v.762a3.812,3.812,0,0,0,3.808,3.808H15.23V12.946h3.808a3.049,3.049,0,0,0,3.046,3.046h.487L20.051,24.06a6.064,6.064,0,0,0,5.963,9.375L27.247,39.6H26.182l-1.523,3.046H22.846v4.569H47.214V42.645H45.4L43.877,39.6H42.645V33.837L31.336,27.052,34.1,15.992h.168a3.036,3.036,0,0,0,2.623-1.523h1.947v2.1l-1.994,3.987H45.4l-1.994-3.987v-2.1ZM1.653,8.377A2.289,2.289,0,0,1,3.808,6.854h9.9V8.377Zm12.054,6.092h-9.9a2.289,2.289,0,0,1-2.154-1.523H13.707Zm1.523-3.046H9.9V9.9h9.138v1.523Zm5.331,15.992a4.569,4.569,0,1,1,4.569,4.569A4.574,4.574,0,0,1,20.561,27.415ZM31.088,28.68l5.03,3.018-8.146,3.76-.485-2.425a6.114,6.114,0,0,0,3.6-4.352Zm6.5,3.9,2.646,1.588-11.5,5.11-.457-2.285,9.355-4.317Zm8.1,13.111H24.369V44.168H45.691ZM43.7,42.645H26.362l.762-1.523H42.936ZM31.764,39.6l9.358-4.159V39.6ZM30.426,24.415a6.075,6.075,0,0,0-8.148-2.38l1.889-6.043h8.366Zm5.366-11.469a1.525,1.525,0,0,1-1.523,1.523H22.084a1.525,1.525,0,0,1-1.523-1.523V8.377a1.525,1.525,0,0,1,1.523-1.523H34.268a1.525,1.525,0,0,1,1.523,1.523ZM42.936,1.523l-.762,1.523h-2.1l-.762-1.523ZM40.361,4.569h1.523V6.854H40.361Zm5.331,3.808V9.9H37.314V8.377Zm-8.377,3.046h8.377v1.523H37.314Zm1.994,7.615.762-1.523h2.1l.762,1.523Zm2.575-3.046H40.361V14.469h1.523Zm0,0" transform="translate(0)" fill="#006300"/>
    <path id="Path_1235" data-name="Path 1235" d="M242.285,88a2.285,2.285,0,1,0,2.285,2.285A2.288,2.288,0,0,0,242.285,88Zm0,3.046a.762.762,0,1,1,.762-.762A.762.762,0,0,1,242.285,91.046Zm0,0" transform="translate(-217.154 -79.623)" fill="#006300"/>
    <path id="Path_1236" data-name="Path 1236" d="M306.285,88a2.285,2.285,0,1,0,2.285,2.285A2.288,2.288,0,0,0,306.285,88Zm0,3.046a.762.762,0,1,1,.762-.762A.763.763,0,0,1,306.285,91.046Zm0,0" transform="translate(-275.062 -79.623)" fill="#006300"/>
    <path id="Path_1237" data-name="Path 1237" d="M15.937,309.721l1.232-1.476-3.138-3.139-1.476,1.233a7.548,7.548,0,0,0-1.026-.425L11.357,304H6.919l-.172,1.915a7.492,7.492,0,0,0-1.026.425l-1.476-1.233-3.138,3.139,1.232,1.476a7.508,7.508,0,0,0-.425,1.026L0,310.919v4.438l1.915.172a7.39,7.39,0,0,0,.425,1.026L1.108,318.03l3.138,3.139,1.476-1.233a7.56,7.56,0,0,0,1.026.425l.171,1.915h4.438l.172-1.915a7.5,7.5,0,0,0,1.026-.425l1.476,1.233,3.138-3.139-1.232-1.476a7.509,7.509,0,0,0,.425-1.026l1.914-.171v-4.438l-1.915-.172A7.486,7.486,0,0,0,15.937,309.721Zm.816,4.244-1.583.142-.132.524a6,6,0,0,1-.673,1.623l-.277.464,1.02,1.221-1.169,1.169-1.221-1.02-.463.277a6.032,6.032,0,0,1-1.623.673l-.524.132-.142,1.583H8.311l-.142-1.583-.524-.132a6.032,6.032,0,0,1-1.623-.673l-.463-.277-1.221,1.02-1.169-1.169,1.02-1.22-.277-.464a6.056,6.056,0,0,1-.673-1.623l-.132-.524-1.583-.142v-1.654l1.583-.142.132-.524a6,6,0,0,1,.673-1.623l.277-.464-1.02-1.221,1.169-1.169,1.221,1.02.463-.277a6.032,6.032,0,0,1,1.623-.673l.524-.132.142-1.583H9.965l.142,1.583.524.132a6.032,6.032,0,0,1,1.623.673l.463.277,1.221-1.02,1.169,1.169-1.02,1.22.277.464a6.057,6.057,0,0,1,.673,1.623l.132.524,1.583.142Zm0,0" transform="translate(0 -275.062)" fill="#006300"/>
    <path id="Path_1238" data-name="Path 1238" d="M52.569,352a4.569,4.569,0,1,0,4.569,4.569A4.574,4.574,0,0,0,52.569,352Zm0,7.615a3.046,3.046,0,1,1,3.046-3.046A3.049,3.049,0,0,1,52.569,359.615Zm0,0" transform="translate(-43.431 -318.493)" fill="#006300"/>
    <path id="Path_1239" data-name="Path 1239" d="M88,184h1.523v1.523H88Zm0,0" transform="translate(-79.623 -166.485)" fill="#006300"/>
    <path id="Path_1240" data-name="Path 1240" d="M88,216h1.523v1.523H88Zm0,0" transform="translate(-79.623 -195.439)" fill="#006300"/>
    <path id="Path_1241" data-name="Path 1241" d="M88,248h1.523v1.523H88Zm0,0" transform="translate(-79.623 -224.393)" fill="#006300"/>
  </g>
</svg>
