<svg xmlns="http://www.w3.org/2000/svg" width="50" height="60" viewBox="0 0 50 60">
  <g id="_001-deliveryman" data-name="001-deliveryman" transform="translate(-8 -2)">
    <path id="Path_1375" data-name="Path 1375" d="M30,7h4V9H30Z" fill="#006300"/>
    <path id="Path_1376" data-name="Path 1376" d="M56,42a10.883,10.883,0,0,0-5.8-9.7l-8.4-4.5a13.284,13.284,0,0,0,2-5.1l2.6-1.3a3.011,3.011,0,0,0,1.7-2.7V18a2.946,2.946,0,0,0-3-3h-1V11H44a9.976,9.976,0,0,0-9.9-9h-4a9.976,9.976,0,0,0-9.9,9H20v4H19a2.946,2.946,0,0,0-3,3v.8a2.947,2.947,0,0,0,1.7,2.7l2.6,1.3a13.938,13.938,0,0,0,2,5.1l-8.4,4.5A10.532,10.532,0,0,0,8,42V62H58V48.8l-2-6ZM40.4,48l1.3-4H47v4ZM49,44h5.3l1.3,4H49ZM44.8,31.7A9.366,9.366,0,0,1,40,37.4l-4.4,2.2-2.1-5.7a6.806,6.806,0,0,0,2.4-.8l.9-.5a14.825,14.825,0,0,0,3.9-3.1ZM30,41.2l2-5.3,2,5.3V49a.945.945,0,0,1-1,1H31a.945.945,0,0,1-1-1ZM45,17a.945.945,0,0,1,1,1v.8a.961.961,0,0,1-.6.9l-1.4.7V17ZM30,4h4a7.984,7.984,0,0,1,7.9,7H22.1A7.984,7.984,0,0,1,30,4Zm11.1,9-.4.5A10.706,10.706,0,0,1,25.8,16a9.9,9.9,0,0,1-2.5-2.5l-.4-.5ZM18.6,19.7a1.149,1.149,0,0,1-.6-.9V18a.945.945,0,0,1,1-1h1v3.4ZM22,15.1a12.6,12.6,0,0,0,17.7,2.3A10.039,10.039,0,0,0,42,15.1v5.2a11.888,11.888,0,0,1-6.3,10.5l-.9.5a5.789,5.789,0,0,1-5.7,0l-.9-.5a11.888,11.888,0,0,1-6.3-10.5V15.1Zm5.3,17.5.9.5a7.543,7.543,0,0,0,2.4.8l-2.1,5.7L24,37.4a9.366,9.366,0,0,1-4.8-5.7l4.2-2.2a14.825,14.825,0,0,0,3.9,3.1ZM21,60V49H19V60H10V42a8.8,8.8,0,0,1,4.8-7.9l2.7-1.4a11.414,11.414,0,0,0,5.7,6.5l4.9,2.4V49a2.946,2.946,0,0,0,3,3h2a2.946,2.946,0,0,0,3-3V41.6L41,39.2a11.414,11.414,0,0,0,5.7-6.5l2.7,1.4A9.1,9.1,0,0,1,54.2,42H40.3L38,48.8V60Zm19,0V50H56V60Z" fill="#006300"/>
    <path id="Path_1377" data-name="Path 1377" d="M21,44h6v2H21Z" fill="#006300"/>
    <path id="Path_1378" data-name="Path 1378" d="M42,55h6v2H42Z" fill="#006300"/>
  </g>
</svg>
