<svg xmlns="http://www.w3.org/2000/svg" width="56.645" height="60" viewBox="0 0 56.645 60">
  <g id="_002-delivery-man" data-name="002-delivery-man" transform="translate(0)">
    <g id="Group_632" data-name="Group 632" transform="translate(19.323 10)">
      <g id="Group_631" data-name="Group 631">
        <path id="Path_1359" data-name="Path 1359" d="M195.21,85.333v5a7,7,0,1,1-14,0v-5h-2v5a9,9,0,1,0,18,0v-5Z" transform="translate(-179.21 -85.333)" fill="#006300"/>
      </g>
    </g>
    <g id="Group_634" data-name="Group 634" transform="translate(32.322 21)">
      <g id="Group_633" data-name="Group 633">
        <path id="Path_1360" data-name="Path 1360" d="M314.245,209.5l-5.382-21.548a5.01,5.01,0,0,0-4.771-3.747l-11.958-.928V179.2h-2v5a1,1,0,0,0,.923,1l12.96,1h.006a3,3,0,0,1,2.9,2.242l5.38,21.542a5,5,0,0,1-4.851,6.216v2a7,7,0,0,0,6.79-8.7Z" transform="translate(-290.134 -179.2)" fill="#006300"/>
      </g>
    </g>
    <g id="Group_636" data-name="Group 636" transform="translate(0 21)">
      <g id="Group_635" data-name="Group 635">
        <path id="Path_1361" data-name="Path 1361" d="M36.641,179.2v4.075l-11.878.925h-.01a5,5,0,0,0-4.843,3.758L14.531,209.5a7,7,0,0,0,6.79,8.7v-2a5,5,0,0,1-4.85-6.218l5.378-21.532a3.03,3.03,0,0,1,2.99-2.253l12.88-1a1,1,0,0,0,.922-1v-5Z" transform="translate(-14.317 -179.2)" fill="#006300"/>
      </g>
    </g>
    <g id="Group_638" data-name="Group 638" transform="translate(19.323)">
      <g id="Group_637" data-name="Group 637">
        <path id="Path_1362" data-name="Path 1362" d="M192.21,0h-8a5.006,5.006,0,0,0-5,5v6a1,1,0,0,0,1,1h16a1,1,0,0,0,1-1V5A5.005,5.005,0,0,0,192.21,0Zm3,10h-14V5a3,3,0,0,1,3-3h8a3,3,0,0,1,3,3v5Z" transform="translate(-179.21)" fill="#006300"/>
      </g>
    </g>
    <g id="Group_640" data-name="Group 640" transform="translate(19.323 6)">
      <g id="Group_639" data-name="Group 639">
        <path id="Path_1363" data-name="Path 1363" d="M192.209,51.2h-8a5.006,5.006,0,0,0-5,5,1,1,0,0,0,1,1h16a1,1,0,0,0,1-1A5.005,5.005,0,0,0,192.209,51.2Zm-10.828,4a3,3,0,0,1,2.828-2h8a3.006,3.006,0,0,1,2.829,2Z" transform="translate(-179.209 -51.2)" fill="#006300"/>
      </g>
    </g>
    <g id="Group_642" data-name="Group 642" transform="translate(26.323 11)">
      <g id="Group_641" data-name="Group 641">
        <path id="Path_1364" data-name="Path 1364" d="M240.943,97.867v-4h-2v5a1,1,0,0,0,1,1h2v-2Z" transform="translate(-238.943 -93.867)" fill="#006300"/>
      </g>
    </g>
    <g id="Group_644" data-name="Group 644" transform="translate(5.323 48.999)">
      <g id="Group_643" data-name="Group 643">
        <path id="Path_1365" data-name="Path 1365" d="M73.743,423.133h-8v-2a3,3,0,1,0-6,0v7a1,1,0,0,0,1,1h9a5.006,5.006,0,0,0,5-5A1,1,0,0,0,73.743,423.133Zm-4,4h-8v-6a1,1,0,0,1,2,0v3a1,1,0,0,0,1,1h7.829A3.005,3.005,0,0,1,69.743,427.133Z" transform="translate(-59.743 -418.133)" fill="#006300"/>
      </g>
    </g>
    <g id="Group_646" data-name="Group 646" transform="translate(3.322 42.999)">
      <g id="Group_645" data-name="Group 645">
        <rect id="Rectangle_287" data-name="Rectangle 287" width="7" height="2" fill="#006300"/>
      </g>
    </g>
    <g id="Group_648" data-name="Group 648" transform="translate(46.322 42.999)">
      <g id="Group_647" data-name="Group 647">
        <rect id="Rectangle_288" data-name="Rectangle 288" width="7" height="2" fill="#006300"/>
      </g>
    </g>
    <g id="Group_650" data-name="Group 650" transform="translate(9.323 30)">
      <g id="Group_649" data-name="Group 649">
        <path id="Path_1366" data-name="Path 1366" d="M130.877,256h-36a1,1,0,0,0-1,1v24a1,1,0,0,0,1,1h36a1,1,0,0,0,1-1V257A1,1,0,0,0,130.877,256Zm-1,24h-34V258h34v22Z" transform="translate(-93.877 -256)" fill="#006300"/>
      </g>
    </g>
    <g id="Group_652" data-name="Group 652" transform="translate(41.322 49.999)">
      <g id="Group_651" data-name="Group 651">
        <rect id="Rectangle_289" data-name="Rectangle 289" width="2" height="2" fill="#006300"/>
      </g>
    </g>
    <g id="Group_654" data-name="Group 654" transform="translate(37.322 49.999)">
      <g id="Group_653" data-name="Group 653">
        <rect id="Rectangle_290" data-name="Rectangle 290" width="2" height="2" fill="#006300"/>
      </g>
    </g>
    <g id="Group_656" data-name="Group 656" transform="translate(22.616 25.293)">
      <g id="Group_655" data-name="Group 655">
        <path id="Path_1367" data-name="Path 1367" d="M217.309,215.834l-4.292,4.293-4.293-4.293-1.414,1.414,5,5a1,1,0,0,0,1.414,0l5-5Z" transform="translate(-207.31 -215.834)" fill="#006300"/>
      </g>
    </g>
    <g id="Group_658" data-name="Group 658" transform="translate(36.323 48.999)">
      <g id="Group_657" data-name="Group 657">
        <path id="Path_1368" data-name="Path 1368" d="M336.277,418.133a3,3,0,0,0-3,3v2h-8a1,1,0,0,0-1,1,5.006,5.006,0,0,0,5,5h9a1,1,0,0,0,1-1v-7A3,3,0,0,0,336.277,418.133Zm1,9h-8a3.006,3.006,0,0,1-2.829-2h7.829a1,1,0,0,0,1-1v-3a1,1,0,1,1,2,0v6Z" transform="translate(-324.277 -418.133)" fill="#006300"/>
      </g>
    </g>
    <g id="Group_660" data-name="Group 660" transform="translate(10.322 37)">
      <g id="Group_659" data-name="Group 659">
        <rect id="Rectangle_291" data-name="Rectangle 291" width="36" height="2" fill="#006300"/>
      </g>
    </g>
    <g id="Group_662" data-name="Group 662" transform="translate(23.323 30)">
      <g id="Group_661" data-name="Group 661">
        <path id="Path_1369" data-name="Path 1369" d="M222.343,256h-8a1,1,0,0,0-1,1v13a1,1,0,0,0,1,1h8a1,1,0,0,0,1-1V257A1,1,0,0,0,222.343,256Zm-1,13h-6V258h6Z" transform="translate(-213.343 -256)" fill="#006300"/>
      </g>
    </g>
  </g>
</svg>
