<svg id="_005-engineering" data-name="005-engineering" xmlns="http://www.w3.org/2000/svg" width="48.583" height="54.633" viewBox="0 0 48.583 54.633">
  <path id="Path_1242" data-name="Path 1242" d="M136.706,227.283a.669.669,0,0,0-1.142.473v11.877a.669.669,0,0,0,.669.669H148.11a.669.669,0,0,0,.473-1.142Zm.2,11.681v-9.592l9.592,9.592Z" transform="translate(-122.094 -199.455)" fill="#006300"/>
  <path id="Path_1243" data-name="Path 1243" d="M73.248,4.123,69.768.643a.669.669,0,0,0-.946,0l-20.11,20.11a.671.671,0,0,0-.149.226l-2.2,5.535-8.87-8.87,1.592-1.592a.669.669,0,0,0-.946-.946L36.542,16.7l-2.67-2.67V.669A.669.669,0,0,0,33.2,0H25.53a.669.669,0,0,0-.669.669V53.964a.669.669,0,0,0,.669.669H33.2a.669.669,0,0,0,.669-.669V46.645H64.6l1.869,1.869a.669.669,0,1,0,.946-.946L47.377,27.532l5.535-2.2a.672.672,0,0,0,.226-.148l20.11-20.11a.669.669,0,0,0,0-.946ZM32.533,53.295H26.2V52.1h1.15a.669.669,0,0,0,0-1.338H26.2V48.658h1.15a.669.669,0,1,0,0-1.338H26.2V45.213h1.15a.669.669,0,0,0,0-1.338H26.2V41.767h1.15a.669.669,0,0,0,0-1.338H26.2V38.322h1.15a.669.669,0,0,0,0-1.338H26.2V34.877h1.15a.669.669,0,0,0,0-1.338H26.2V31.431h1.15a.669.669,0,1,0,0-1.338H26.2V27.986h1.15a.669.669,0,1,0,0-1.338H26.2V24.54h1.15a.669.669,0,0,0,0-1.338H26.2V21.095h1.15a.669.669,0,0,0,0-1.338H26.2V17.65h1.15a.669.669,0,0,0,0-1.338H26.2V14.2h1.15a.669.669,0,0,0,0-1.338H26.2V10.759h1.15a.669.669,0,0,0,0-1.338H26.2V7.313h1.15a.669.669,0,0,0,0-1.338H26.2V3.868h1.15a.669.669,0,0,0,0-1.338H26.2V1.338h6.334V53.295Zm1.338-7.988V15.92l3.257,3.257-1.9,1.9a.669.669,0,1,0,.946.946l1.9-1.9,1.49,1.49-1.9,1.9a.669.669,0,1,0,.946.946l1.9-1.9L42,24.049l-1.9,1.9a.669.669,0,1,0,.946.946l1.9-1.9,1.49,1.49-1.9,1.9a.669.669,0,1,0,.946.946l1.9-1.9,1.49,1.49-1.9,1.9a.669.669,0,1,0,.946.946l1.9-1.9,1.49,1.49-1.9,1.9a.669.669,0,1,0,.946.946l1.9-1.9,1.49,1.49-1.9,1.9a.669.669,0,1,0,.946.946l1.9-1.9,1.49,1.49-1.9,1.9a.669.669,0,1,0,.946.946l1.9-1.9,1.49,1.49-1.9,1.9a.669.669,0,1,0,.946.946l1.9-1.9,1.49,1.49-1.9,1.9a.669.669,0,1,0,.946.946l1.9-1.9,3.257,3.257H33.872Zm18-22.34L68.512,6.325l.793.793L52.665,23.76Zm-.946-.946-.793-.793L66.772,4.586l.793.793Zm-1.494.4,2.042,2.042-3.393,1.351ZM70.252,6.172,67.719,3.639,69.3,2.063,71.828,4.6Z" transform="translate(-24.861)" fill="#006300"/>
  <path id="Path_1244" data-name="Path 1244" d="M379.752,402.945a.669.669,0,0,0-.946.946l2.065,2.065a.669.669,0,0,0,.946-.946Z" transform="translate(-335.566 -353.743)" fill="#006300"/>
  <path id="Path_1245" data-name="Path 1245" d="M410.158,433.35a.669.669,0,1,0-.946.947l.042.042a.669.669,0,1,0,.946-.947Z" transform="translate(-362.272 -380.449)" fill="#006300"/>
  <path id="Path_1246" data-name="Path 1246" d="M237.653,18.446a.667.667,0,0,0,.473-.2l.107-.107a.669.669,0,0,0-.947-.946l-.107.107a.669.669,0,0,0,.473,1.142Z" transform="translate(-211.173 -14.932)" fill="#006300"/>
  <path id="Path_1247" data-name="Path 1247" d="M207.246,34.717a.667.667,0,0,0,.473-.2l2.065-2.065a.669.669,0,0,0-.946-.946l-2.065,2.065a.669.669,0,0,0,.473,1.142Z" transform="translate(-184.466 -27.503)" fill="#006300"/>
  <path id="Path_1248" data-name="Path 1248" d="M176.84,65.122a.667.667,0,0,0,.473-.2l2.065-2.065a.669.669,0,1,0-.946-.946l-2.065,2.065a.669.669,0,0,0,.473,1.142Z" transform="translate(-157.76 -54.209)" fill="#006300"/>
  <path id="Path_1249" data-name="Path 1249" d="M146.435,95.528a.667.667,0,0,0,.473-.2l2.065-2.065a.669.669,0,0,0-.946-.946l-2.065,2.065a.669.669,0,0,0,.473,1.142Z" transform="translate(-131.054 -80.915)" fill="#006300"/>
</svg>
