<svg id="_001-free-delivery" data-name="001-free-delivery" xmlns="http://www.w3.org/2000/svg" width="70.815" height="60.169" viewBox="0 0 70.815 60.169">
  <g id="Group_614" data-name="Group 614" transform="translate(0 0)">
    <g id="Group_613" data-name="Group 613">
      <path id="Path_1350" data-name="Path 1350" d="M65.858,72.85l-1.834-7.335a1.109,1.109,0,0,0,.878-1.084V63.248a4.662,4.662,0,0,0-4.657-4.657H51.892V56.151A2.294,2.294,0,0,0,49.6,53.86H34.069l9.438-3.775a1.109,1.109,0,1,0-.824-2.059l-7.728,3.091a26.062,26.062,0,0,0,5.572-4.337,5.164,5.164,0,0,0-8.212-6.263c-1.262,1.654-2.926,6.3-4,9.579-1.077-3.276-2.742-7.925-4-9.579A5.164,5.164,0,0,0,16.1,46.78a26.054,26.054,0,0,0,5.572,4.337l-7.728-3.091a1.109,1.109,0,1,0-.824,2.059l9.438,3.775H7.022a2.294,2.294,0,0,0-2.292,2.292V76.258a1.109,1.109,0,0,0,2.218,0V56.151a.074.074,0,0,1,.074-.074H49.6a.074.074,0,0,1,.074.074V76.258a1.109,1.109,0,0,0,2.218,0V75H64.979a3.628,3.628,0,0,1,3.445,2.513H64.976a1.109,1.109,0,0,0-1.109,1.109v2.365a3.478,3.478,0,0,0,3.474,3.474H68.6v4.879H65.7a7.02,7.02,0,0,0-13.273,0h-.534V80.989a1.109,1.109,0,0,0-2.218,0v8.353H26.669a7.02,7.02,0,0,0-13.273,0H7.022a.074.074,0,0,1-.074-.074V86.828h4.8a1.109,1.109,0,1,0,0-2.218H1.109a1.109,1.109,0,1,0,0,2.218H4.731v2.439a2.294,2.294,0,0,0,2.292,2.292h5.989c0,.025,0,.049,0,.074a7.022,7.022,0,0,0,14.045,0c0-.025,0-.049,0-.074H52.042c0,.025,0,.049,0,.074a7.022,7.022,0,0,0,14.045,0c0-.025,0-.049,0-.074h3.624a1.109,1.109,0,0,0,1.109-1.109V78.623A5.848,5.848,0,0,0,65.858,72.85ZM23.914,49.907c-4.374-2.718-5.671-3.968-6.055-4.472a2.946,2.946,0,0,1,4.686-3.573c1.073,1.406,2.752,6.14,3.861,9.551C25.657,50.972,24.8,50.456,23.914,49.907Zm6.3,1.505c1.109-3.411,2.789-8.144,3.861-9.551a2.946,2.946,0,0,1,4.685,3.573c-.384.5-1.681,1.754-6.055,4.472C31.826,50.456,30.966,50.972,30.217,51.412Zm21.675,9.4h8.353a2.442,2.442,0,0,1,2.439,2.439v.074H51.892Zm0,11.975V65.539h9.853l1.811,7.244ZM20.032,96.438a4.8,4.8,0,1,1,4.8-4.8A4.81,4.81,0,0,1,20.032,96.438Zm39.03,0a4.8,4.8,0,1,1,4.8-4.8A4.81,4.81,0,0,1,59.062,96.438ZM68.6,82.245H67.341a1.258,1.258,0,0,1-1.257-1.257V79.732H68.6v2.513Z" transform="translate(0 -38.486)" fill="#006300"/>
    </g>
  </g>
  <g id="Group_616" data-name="Group 616" transform="translate(17.741 50.855)">
    <g id="Group_615" data-name="Group 615">
      <path id="Path_1351" data-name="Path 1351" d="M130.559,406.172a2.292,2.292,0,1,0,2.292,2.292A2.294,2.294,0,0,0,130.559,406.172Z" transform="translate(-128.267 -406.172)" fill="#006300"/>
    </g>
  </g>
  <g id="Group_618" data-name="Group 618" transform="translate(56.771 50.855)">
    <g id="Group_617" data-name="Group 617">
      <path id="Path_1352" data-name="Path 1352" d="M412.747,406.172a2.292,2.292,0,1,0,2.292,2.292A2.294,2.294,0,0,0,412.747,406.172Z" transform="translate(-410.455 -406.172)" fill="#006300"/>
    </g>
  </g>
  <g id="Group_620" data-name="Group 620" transform="translate(28.385 46.124)">
    <g id="Group_619" data-name="Group 619">
      <path id="Path_1353" data-name="Path 1353" d="M222.894,371.967H206.336a1.109,1.109,0,1,0,0,2.218h16.558a1.109,1.109,0,0,0,0-2.218Z" transform="translate(-205.227 -371.967)" fill="#006300"/>
    </g>
  </g>
  <g id="Group_622" data-name="Group 622" transform="translate(2.365 41.393)">
    <g id="Group_621" data-name="Group 621">
      <path id="Path_1354" data-name="Path 1354" d="M32.4,337.763H18.211a1.109,1.109,0,0,0,0,2.218H32.4a1.109,1.109,0,0,0,0-2.218Z" transform="translate(-17.102 -337.763)" fill="#006300"/>
    </g>
  </g>
  <g id="Group_624" data-name="Group 624" transform="translate(11.827 24.835)">
    <g id="Group_623" data-name="Group 623">
      <path id="Path_1355" data-name="Path 1355" d="M91.351,218.046H86.62a1.109,1.109,0,0,0-1.109,1.109v9.462a1.109,1.109,0,1,0,2.218,0v-3.622h2.439a1.109,1.109,0,1,0,0-2.218H87.729v-2.513h3.622a1.109,1.109,0,1,0,0-2.218Z" transform="translate(-85.511 -218.046)" fill="#006300"/>
    </g>
  </g>
  <g id="Group_626" data-name="Group 626" transform="translate(20.106 24.835)">
    <g id="Group_625" data-name="Group 625">
      <path id="Path_1356" data-name="Path 1356" d="M151.656,225.514a4.064,4.064,0,0,0-2.221-7.468h-2.957a1.109,1.109,0,0,0-1.109,1.109v9.462a1.109,1.109,0,0,0,2.218,0v-2.439h1.846l2.036,3.054a1.109,1.109,0,0,0,1.845-1.23Zm-2.221-1.555h-1.848v-3.7h1.848a1.848,1.848,0,1,1,0,3.7Z" transform="translate(-145.369 -218.046)" fill="#006300"/>
    </g>
  </g>
  <g id="Group_628" data-name="Group 628" transform="translate(29.568 24.835)">
    <g id="Group_627" data-name="Group 627">
      <path id="Path_1357" data-name="Path 1357" d="M219.618,227.508H216v-2.517c.025,0,.049,0,.074,0h2.365a1.109,1.109,0,1,0,0-2.218H216.07c-.025,0-.049,0-.074,0v-2.517h3.622a1.109,1.109,0,1,0,0-2.218h-4.731a1.109,1.109,0,0,0-1.109,1.109v9.462a1.109,1.109,0,0,0,1.109,1.109h4.731a1.109,1.109,0,1,0,0-2.218Z" transform="translate(-213.778 -218.046)" fill="#006300"/>
    </g>
  </g>
  <g id="Group_630" data-name="Group 630" transform="translate(37.847 24.835)">
    <g id="Group_629" data-name="Group 629">
      <path id="Path_1358" data-name="Path 1358" d="M279.476,227.508h-3.622v-2.513h1.257a1.109,1.109,0,0,0,0-2.218h-1.257v-2.513h3.622a1.109,1.109,0,0,0,0-2.218h-4.731a1.109,1.109,0,0,0-1.109,1.109v9.462a1.109,1.109,0,0,0,1.109,1.109h4.731a1.109,1.109,0,1,0,0-2.218Z" transform="translate(-273.636 -218.046)" fill="#006300"/>
    </g>
  </g>
</svg>
