<svg xmlns="http://www.w3.org/2000/svg" width="50.611" height="50.611" viewBox="0 0 50.611 50.611">
  <g id="_003-guarantee-certificate" data-name="003-guarantee-certificate" transform="translate(0 0)">
    <g id="Group_367" data-name="Group 367" transform="translate(28.68 27.836)">
      <g id="Group_366" data-name="Group 366">
        <path id="Path_1228" data-name="Path 1228" d="M295.194,281.6a5.061,5.061,0,1,0,5.061,5.061A5.066,5.066,0,0,0,295.194,281.6Zm0,8.435a3.374,3.374,0,1,1,3.374-3.374A3.377,3.377,0,0,1,295.194,290.035Z" transform="translate(-290.133 -281.6)" fill="#006300"/>
      </g>
    </g>
    <g id="Group_369" data-name="Group 369" transform="translate(30.367 36.271)">
      <g id="Group_368" data-name="Group 368">
        <path id="Path_1229" data-name="Path 1229" d="M312.261,366.933v3.485l-1.22-.813a.84.84,0,0,0-.936,0l-1.219.813v-3.485H307.2v5.061a.844.844,0,0,0,1.312.7l2.062-1.375,2.062,1.375a.843.843,0,0,0,1.312-.7v-5.061Z" transform="translate(-307.2 -366.933)" fill="#006300"/>
      </g>
    </g>
    <g id="Group_371" data-name="Group 371" transform="translate(19.401 8.435)">
      <g id="Group_370" data-name="Group 370">
        <rect id="Rectangle_178" data-name="Rectangle 178" width="10.966" height="1.687" fill="#006300"/>
      </g>
    </g>
    <g id="Group_373" data-name="Group 373" transform="translate(11.809 13.496)">
      <g id="Group_372" data-name="Group 372">
        <rect id="Rectangle_179" data-name="Rectangle 179" width="26.993" height="1.687" fill="#006300"/>
      </g>
    </g>
    <g id="Group_375" data-name="Group 375" transform="translate(11.809 18.557)">
      <g id="Group_374" data-name="Group 374">
        <rect id="Rectangle_180" data-name="Rectangle 180" width="18.557" height="1.687" fill="#006300"/>
      </g>
    </g>
    <g id="Group_377" data-name="Group 377" transform="translate(33.741 18.557)">
      <g id="Group_376" data-name="Group 376">
        <rect id="Rectangle_181" data-name="Rectangle 181" width="5.061" height="1.687" fill="#006300"/>
      </g>
    </g>
    <g id="Group_379" data-name="Group 379" transform="translate(11.809 23.619)">
      <g id="Group_378" data-name="Group 378">
        <rect id="Rectangle_182" data-name="Rectangle 182" width="26.993" height="1.687" fill="#006300"/>
      </g>
    </g>
    <g id="Group_381" data-name="Group 381" transform="translate(11.809 28.68)">
      <g id="Group_380" data-name="Group 380">
        <rect id="Rectangle_183" data-name="Rectangle 183" width="10.122" height="1.687" fill="#006300"/>
      </g>
    </g>
    <g id="Group_383" data-name="Group 383" transform="translate(11.809 32.897)">
      <g id="Group_382" data-name="Group 382">
        <rect id="Rectangle_184" data-name="Rectangle 184" width="4.218" height="1.687" fill="#006300"/>
      </g>
    </g>
    <g id="Group_385" data-name="Group 385" transform="translate(19.401 32.897)">
      <g id="Group_384" data-name="Group 384">
        <rect id="Rectangle_185" data-name="Rectangle 185" width="2.531" height="1.687" fill="#006300"/>
      </g>
    </g>
    <g id="Group_387" data-name="Group 387" transform="translate(42.176)">
      <g id="Group_386" data-name="Group 386">
        <path id="Path_1230" data-name="Path 1230" d="M430.884,0a4.222,4.222,0,0,0-4.218,4.218V5.9a.843.843,0,0,0,.844.843h6.748A.843.843,0,0,0,435.1,5.9V4.218A4.222,4.222,0,0,0,430.884,0Zm2.531,5.061h-5.061V4.218a2.531,2.531,0,0,1,5.061,0Z" transform="translate(-426.666 0)" fill="#006300"/>
      </g>
    </g>
    <g id="Group_389" data-name="Group 389" transform="translate(6.748)">
      <g id="Group_388" data-name="Group 388">
        <path id="Path_1231" data-name="Path 1231" d="M107.912,0H72.485a4.222,4.222,0,0,0-4.218,4.218V44.707h1.687V4.218a2.534,2.534,0,0,1,2.531-2.531H104.54a4.2,4.2,0,0,0-.845,2.531V46.394a2.534,2.534,0,0,1-2.531,2.531H69.11v1.687h32.054a4.222,4.222,0,0,0,4.218-4.218V4.218a2.534,2.534,0,0,1,2.531-2.531.844.844,0,1,0,0-1.687Z" transform="translate(-68.267)" fill="#006300"/>
      </g>
    </g>
    <g id="Group_391" data-name="Group 391" transform="translate(0 43.863)">
      <g id="Group_390" data-name="Group 390">
        <path id="Path_1232" data-name="Path 1232" d="M39.646,448.794a2.534,2.534,0,0,1-2.531-2.531v-1.687a.843.843,0,0,0-.843-.843H.843a.843.843,0,0,0-.843.843v1.687a4.222,4.222,0,0,0,4.218,4.218H39.646a.844.844,0,0,0,0-1.687Zm-35.428,0a2.534,2.534,0,0,1-2.531-2.531v-.844H35.428v.844a4.2,4.2,0,0,0,.845,2.531Z" transform="translate(0 -443.733)" fill="#006300"/>
      </g>
    </g>
  </g>
</svg>
