<svg xmlns="http://www.w3.org/2000/svg" width="50.977" height="46.023" viewBox="0 0 50.977 46.023">
  <g id="_001-policy" data-name="001-policy" transform="translate(0 0)">
    <path id="Path_1219" data-name="Path 1219" d="M45.6,0H12.637A5.168,5.168,0,0,0,7.449,5.131L7.236,34.156H.8a.837.837,0,0,0-.8.859V39.01a7,7,0,0,0,6.6,6.965v.048H34.362v-.054c.206.008.331.054.473.054h.02a6.978,6.978,0,0,0,6.937-7.014V13.621h8.38a.846.846,0,0,0,.8-.868V5.424A5.414,5.414,0,0,0,45.6,0ZM6.965,44.372H6.959A5.35,5.35,0,0,1,1.65,39.009v-3.2H27.861V39a6.987,6.987,0,0,0,2.04,4.958,2.965,2.965,0,0,1,.435.419Zm33.176-5.364a5.331,5.331,0,0,1-5.287,5.364h-.017A5.364,5.364,0,0,1,29.512,39V35.015a.855.855,0,0,0-.826-.859H8.888L9.1,5.136a3.516,3.516,0,0,1,3.537-3.485H41.7a5.633,5.633,0,0,0-1.562,3.795Zm9.184-33.57V11.97H41.792V5.444a3.823,3.823,0,0,1,3.784-3.793H45.6a3.763,3.763,0,0,1,3.726,3.781Zm0,0" transform="translate(0.001)" fill="#006300"/>
    <path id="Path_1220" data-name="Path 1220" d="M165.561,68.366l4.256,2.91a.813.813,0,0,0,.923,0l4.243-2.909a6.412,6.412,0,0,0,2.563-4.891V57.588a.807.807,0,0,0-.44-.741l-6.48-3.188a.811.811,0,0,0-.722,0l-6.468,3.179a.806.806,0,0,0-.439.741v5.9A6.412,6.412,0,0,0,165.561,68.366Zm-.914-10.272,5.624-2.775L175.9,58.1v5.374A4.757,4.757,0,0,1,174.052,67l-3.79,2.592L166.486,67a4.755,4.755,0,0,1-1.839-3.527Zm0,0" transform="translate(-146.176 -48.046)" fill="#006300"/>
    <path id="Path_1221" data-name="Path 1221" d="M203.443,120.822a.824.824,0,0,0,.584.247h0a.826.826,0,0,0,.584-.244l3.284-3.285a.826.826,0,0,0-1.167-1.169l-2.7,2.7-1.078-1.089a.826.826,0,0,0-1.173,1.163Zm0,0" transform="translate(-180.744 -104.146)" fill="#006300"/>
    <path id="Path_1222" data-name="Path 1222" d="M153.638,248H133.826a.826.826,0,0,0,0,1.651h19.813a.826.826,0,0,0,0-1.651Zm0,0" transform="translate(-119.275 -222.409)" fill="#006300"/>
    <path id="Path_1223" data-name="Path 1223" d="M153.638,285H133.826a.826.826,0,0,0,0,1.651h19.813a.826.826,0,0,0,0-1.651Zm0,0" transform="translate(-119.275 -255.59)" fill="#006300"/>
  </g>
</svg>
