<svg xmlns="http://www.w3.org/2000/svg" width="47.724" height="57.526" viewBox="0 0 47.724 57.526">
  <g id="_002-tag" data-name="002-tag" transform="translate(0)">
    <path id="Path_1224" data-name="Path 1224" d="M23.86,57.526a23.969,23.969,0,0,0,.959-47.915V.959a.959.959,0,0,0-1.918,0V9.611a23.969,23.969,0,0,0,.959,47.915Zm0-36.433a.959.959,0,0,0,.959-.959v-.692a1.917,1.917,0,1,1-1.918,0v.692a.959.959,0,0,0,.959.959ZM22.9,11.529v5.865a3.835,3.835,0,1,0,1.918,0V11.529a22.051,22.051,0,1,1-1.918,0Zm0,0" transform="translate(0.002 0)" fill="#006300"/>
    <path id="Path_1225" data-name="Path 1225" d="M143.487,273.065a.958.958,0,0,0,1.342-.191l11.505-15.34a.959.959,0,0,0-1.534-1.151l-11.505,15.34A.958.958,0,0,0,143.487,273.065Zm0,0" transform="translate(-125.952 -225.319)" fill="#006300"/>
    <path id="Path_1226" data-name="Path 1226" d="M130.937,263.67a3.835,3.835,0,1,0-3.835-3.835A3.835,3.835,0,0,0,130.937,263.67Zm0-5.753a1.918,1.918,0,1,1-1.918,1.918A1.917,1.917,0,0,1,130.937,257.918Zm0,0" transform="translate(-111.869 -225.319)" fill="#006300"/>
    <path id="Path_1227" data-name="Path 1227" d="M207.1,339.835A3.835,3.835,0,1,0,210.937,336,3.835,3.835,0,0,0,207.1,339.835Zm5.753,0a1.918,1.918,0,1,1-1.918-1.918A1.917,1.917,0,0,1,212.855,339.835Zm0,0" transform="translate(-182.281 -295.732)" fill="#006300"/>
  </g>
</svg>
