<svg id="_002-wood" data-name="002-wood" xmlns="http://www.w3.org/2000/svg" width="60" height="60" viewBox="0 0 60 60">
  <path id="Path_1379" data-name="Path 1379" d="M12,0H0V60H60V0ZM48,39.045,39.045,48H30.56L48,30.56Zm0,2.828V48H41.873ZM27.731,48H19.246L48,19.246v8.485ZM48,16.418,16.418,48H12V43.933L43.932,12H48ZM12,41.1V32.619L32.619,12H41.1Zm0-11.313V21.305L21.305,12h8.486Zm0-11.314V12h6.477ZM2,2h8V48H2ZM48,58H2V50H48Zm10,0H50V12h8ZM50,10H12V2H58v8Z" fill="#006300"/>
  <circle id="Ellipse_65" data-name="Ellipse 65" cx="1" cy="1" r="1" transform="translate(54 3)" fill="#006300"/>
  <circle id="Ellipse_66" data-name="Ellipse 66" cx="1" cy="1" r="1" transform="translate(50 3)" fill="#006300"/>
  <circle id="Ellipse_67" data-name="Ellipse 67" cx="1" cy="1" r="1" transform="translate(54 7)" fill="#006300"/>
  <circle id="Ellipse_68" data-name="Ellipse 68" cx="1" cy="1" r="1" transform="translate(50 7)" fill="#006300"/>
  <circle id="Ellipse_69" data-name="Ellipse 69" cx="1" cy="1" r="1" transform="translate(55 54)" fill="#006300"/>
  <circle id="Ellipse_70" data-name="Ellipse 70" cx="1" cy="1" r="1" transform="translate(55 50)" fill="#006300"/>
  <circle id="Ellipse_71" data-name="Ellipse 71" cx="1" cy="1" r="1" transform="translate(51 54)" fill="#006300"/>
  <circle id="Ellipse_72" data-name="Ellipse 72" cx="1" cy="1" r="1" transform="translate(51 50)" fill="#006300"/>
  <circle id="Ellipse_73" data-name="Ellipse 73" cx="1" cy="1" r="1" transform="translate(4 55)" fill="#006300"/>
  <circle id="Ellipse_74" data-name="Ellipse 74" cx="1" cy="1" r="1" transform="translate(8 55)" fill="#006300"/>
  <circle id="Ellipse_75" data-name="Ellipse 75" cx="1" cy="1" r="1" transform="translate(4 51)" fill="#006300"/>
  <circle id="Ellipse_76" data-name="Ellipse 76" cx="1" cy="1" r="1" transform="translate(8 51)" fill="#006300"/>
  <circle id="Ellipse_77" data-name="Ellipse 77" cx="1" cy="1" r="1" transform="translate(3 4)" fill="#006300"/>
  <circle id="Ellipse_78" data-name="Ellipse 78" cx="1" cy="1" r="1" transform="translate(3 8)" fill="#006300"/>
  <circle id="Ellipse_79" data-name="Ellipse 79" cx="1" cy="1" r="1" transform="translate(7 4)" fill="#006300"/>
  <circle id="Ellipse_80" data-name="Ellipse 80" cx="1" cy="1" r="1" transform="translate(7 8)" fill="#006300"/>
</svg>
