<svg xmlns="http://www.w3.org/2000/svg" width="27.15" height="26.578" viewBox="0 0 27.15 26.578">
  <path id="Path_1400" data-name="Path 1400" d="M-1798.654,3358.538c.178-.21.349-.412.521-.614q2.361-2.766,4.858-5.409,1.7-1.8,3.468-3.53c1.143-1.107,2.312-2.185,3.552-3.184a18.9,18.9,0,0,1,2.114-1.51,6.714,6.714,0,0,1,1.457-.687,2.769,2.769,0,0,1,.931-.139,1.715,1.715,0,0,1,.839.242,1.026,1.026,0,0,1,.45,1.286,1.984,1.984,0,0,1-.417.656c-.276.3-.559.6-.85.881-.778.764-1.572,1.511-2.34,2.284a53.706,53.706,0,0,0-7.337,9.261,66.216,66.216,0,0,0-4.244,7.893q-.787,1.727-1.488,3.491c-.016.039-.03.079-.048.116a.761.761,0,0,1-.682.465.758.758,0,0,1-.712-.374c-.054-.085-.1-.175-.151-.262-.874-1.54-1.771-3.066-2.743-4.547a36.479,36.479,0,0,0-2.775-3.736,33.13,33.13,0,0,0-2.585-2.678q-.217-.2-.436-.4a.8.8,0,0,1-.268-.655,1.5,1.5,0,0,1,.644-1.239,1.744,1.744,0,0,1,.774-.283,4.1,4.1,0,0,1,1.464.114,13.913,13.913,0,0,1,2.244.752c1.1.453,2.16.975,3.213,1.522Z" transform="translate(1807.541 -3343.464)"/>
</svg>
