<svg id="clock-circular-outline" xmlns="http://www.w3.org/2000/svg" width="32.884" height="32.884" viewBox="0 0 32.884 32.884">
  <g id="Group_716" data-name="Group 716">
    <path id="Path_1401" data-name="Path 1401" d="M16.442,0A16.442,16.442,0,1,0,32.884,16.442,16.461,16.461,0,0,0,16.442,0Zm0,29.385A12.943,12.943,0,1,1,29.386,16.442,12.958,12.958,0,0,1,16.442,29.385Z"/>
    <path id="Path_1402" data-name="Path 1402" d="M54.163,27.068H46.774V18.184a1.354,1.354,0,1,0-2.708,0V28.422a1.354,1.354,0,0,0,1.354,1.354h8.743a1.354,1.354,0,0,0,0-2.708Z" transform="translate(-29.152 -11.134)"/>
  </g>
</svg>
