<svg xmlns="http://www.w3.org/2000/svg" width="22.954" height="30.14" viewBox="0 0 22.954 30.14">
  <g id="point-at" transform="translate(-61.038)">
    <g id="Group_718" data-name="Group 718" transform="translate(66.562 22.925)">
      <g id="Group_717" data-name="Group 717" transform="translate(0)">
        <path id="Path_1403" data-name="Path 1403" d="M171.305,389.424H155.88a1,1,0,0,0-1,1v5.211a1,1,0,0,0,1,1h15.425a1,1,0,0,0,1-1v-5.211A1,1,0,0,0,171.305,389.424Z" transform="translate(-154.878 -389.424)"/>
      </g>
    </g>
    <g id="Group_720" data-name="Group 720" transform="translate(61.038)">
      <g id="Group_719" data-name="Group 719">
        <path id="Path_1404" data-name="Path 1404" d="M80.609,9H80.6l-7.642-.954V3.058a3.058,3.058,0,1,0-6.117,0V13.447l-1.448-.928A2.825,2.825,0,0,0,61.983,17l4.373,3.916H82.648a4.114,4.114,0,0,0,.454-1.693V11.851A2.887,2.887,0,0,0,80.609,9Z" transform="translate(-61.038)"/>
      </g>
    </g>
  </g>
</svg>
