<svg xmlns="http://www.w3.org/2000/svg" width="370.813" height="235.788" viewBox="0 0 370.813 235.788">
  <g id="Group_340" data-name="Group 340" transform="translate(0 0)">
    <g id="Group_318" data-name="Group 318" transform="translate(191.328)">
      <path id="Path_1147" data-name="Path 1147" d="M1915.369,330.931a81.086,81.086,0,0,0-13,2.527,44.948,44.948,0,0,0-23.24,15.65c-2.982,3.823-4.308,7.893-2.269,12.448,2.279,5.1.953,9.213-2.623,13.1a27.413,27.413,0,0,0-4.376,5.986c-.607,1.2-1.168,3.4-.1,4.46,1.019,1.013,3.169.513,4.261-.1,4.17-2.345,7.943-5.469,12.238-7.513,3.913-1.861,8.355-2.581,12.475-4.041a18.728,18.728,0,0,0,5.4-2.945c6.295-5.072,12.185-10.685,18.743-15.376,7.707-5.515,16.356-4.236,24-.153,7.8,4.166,11.58,11.687,11.423,20.622-.223,12.721-4.109,24.122-13.8,32.851-5.995,5.4-12.142,10.69-18.6,15.517-16.954,12.671-34.3,24.829-51.131,37.654-11.224,8.547-20.627,18.947-23.677,33.265-5.394,25.342,3.4,44.545,26.133,58.375a87.968,87.968,0,0,0,58.545,12.249c41.027-5.357,67.535-29.769,84.74-65.941.213-.447.4-.91,1.053-2.424-2.011,1.323-3.253,2.143-4.5,2.962-14.072,9.275-27.865,19.642-45.058,21.88-11.843,1.543-23.992,1.171-35.993,1.014-14.9-.195-27.91-20.871-23.168-37.447,3.1-10.843,9.629-19.6,17.156-27.51,8.075-8.493,16.732-16.456,25.427-24.329,10.762-9.738,19.279-21.11,23.972-34.762,9.539-27.775-4.465-59.095-37.532-65.755-3.863-.778-7.684-1.878-11.607-2.254A70.29,70.29,0,0,0,1915.369,330.931Z" transform="translate(-1849.55 -330.534)" fill="#f2f2f2"/>
      <path id="Path_1148" data-name="Path 1148" d="M1968.011,357.089c-27.789,32.329-58.164,61.312-99.892,77.475,4.551.922,8.733,2.362,12.97,2.528,23.452.9,44.33-7.471,64.223-18.782,5.429-3.086,10.264-7.2,15.457-10.71a21.277,21.277,0,0,0,9.867-18.351c.057-3.608.3-7.215.027-11.062-5.931,12.059-15.954,20.047-26.65,27.034-10.54,6.893-21.718,12.8-32.614,19.145-3.129,2.023-4.222-.239-.973-1.692,2.9-1.551,5.814-3.078,8.7-4.662a146.6,146.6,0,0,0,38.636-30.7C1967.379,376.607,1968.628,372.672,1968.011,357.089Z" transform="translate(-1791.305 -247.236)" fill="#f2f2f2"/>
      <path id="Path_1149" data-name="Path 1149" d="M1880.993,470.081a363.175,363.175,0,0,0,30.629-31.332c16.359-18.976,30.256-39.639,38.522-63.662,1.875-5.453,1.751-10.4-1.066-15.2-3.992-6.792-8.279-13.42-13.006-19.952a263.355,263.355,0,0,1-22.171,74.621,224.053,224.053,0,0,1-44.3,63.273,55.357,55.357,0,0,0,4.938-2.552A52.118,52.118,0,0,0,1880.993,470.081Z" transform="translate(-1786.656 -301.042)" fill="#f2f2f2"/>
      <path id="Path_1150" data-name="Path 1150" d="M1881.75,451.227c-3.64,2.949-9.693,6.979-13.334,9.928.134.323,20.486-9,28.131-14.173,24.2-16.386,44.256-37.025,61.023-61.064,6.667-9.565,8.435-19.026,4.963-29.852-.907-2.813-1.539-5.717-3.223-8.758-.653,1.911-1.2,3.872-1.974,5.73-15.288,36.632-36.953,68.58-68.65,93.1C1886.673,447.7,1881.75,451.227,1881.75,451.227Z" transform="translate(-1790.37 -277.914)" fill="#f2f2f2"/>
    </g>
    <g id="Group_319" data-name="Group 319">
      <path id="Path_1151" data-name="Path 1151" d="M1911.3,330.931a81.236,81.236,0,0,1,13,2.527,44.931,44.931,0,0,1,23.236,15.65c2.983,3.823,4.311,7.893,2.275,12.448-2.283,5.1-.956,9.213,2.62,13.1a27.256,27.256,0,0,1,4.376,5.986c.607,1.2,1.171,3.4.1,4.46-1.017,1.013-3.169.513-4.266-.1-4.169-2.345-7.939-5.469-12.237-7.513-3.908-1.861-8.353-2.581-12.475-4.041a18.777,18.777,0,0,1-5.4-2.945c-6.292-5.072-12.182-10.685-18.742-15.376-7.7-5.515-16.358-4.236-24-.153-7.8,4.166-11.58,11.687-11.419,20.622.223,12.721,4.108,24.122,13.8,32.851,6,5.4,12.146,10.69,18.6,15.517,16.956,12.671,34.3,24.829,51.13,37.654,11.224,8.547,20.631,18.947,23.676,33.265,5.394,25.342-3.4,44.545-26.133,58.375A87.953,87.953,0,0,1,1890.9,565.5c-41.027-5.357-67.534-29.769-84.741-65.941-.209-.447-.392-.91-1.055-2.424l4.5,2.962c14.072,9.275,27.861,19.642,45.052,21.88,11.849,1.543,24,1.171,36,1.014,14.9-.195,27.905-20.871,23.163-37.447-3.1-10.843-9.621-19.6-17.151-27.51-8.079-8.493-16.737-16.456-25.432-24.329-10.757-9.738-19.277-21.11-23.965-34.762-9.54-27.775,4.463-59.095,37.526-65.755,3.863-.778,7.685-1.878,11.613-2.254A70.279,70.279,0,0,1,1911.3,330.931Z" transform="translate(-1797.636 -330.534)" fill="#f2f2f2"/>
      <path id="Path_1152" data-name="Path 1152" d="M1806.075,357.089c27.791,32.329,58.168,61.312,99.9,77.475-4.55.922-8.737,2.362-12.969,2.528-23.457.9-44.33-7.471-64.227-18.782-5.426-3.086-10.262-7.2-15.454-10.71a21.269,21.269,0,0,1-9.87-18.351c-.054-3.608-.3-7.215-.024-11.062,5.927,12.059,15.955,20.047,26.645,27.034,10.541,6.893,21.719,12.8,32.619,19.145,3.128,2.023,4.223-.239.973-1.692-2.9-1.551-5.817-3.078-8.7-4.662a146.6,146.6,0,0,1-38.629-30.7C1806.708,376.607,1805.463,372.672,1806.075,357.089Z" transform="translate(-1803.301 -247.236)" fill="#f2f2f2"/>
      <path id="Path_1153" data-name="Path 1153" d="M1877.273,470.081a362.789,362.789,0,0,1-30.632-31.332c-16.354-18.976-30.251-39.639-38.521-63.662-1.877-5.453-1.751-10.4,1.064-15.2,4-6.792,8.278-13.42,13.008-19.952a263.491,263.491,0,0,0,22.167,74.621,224.128,224.128,0,0,0,44.306,63.273c-3.2-1.551-1.984-.918-4.944-2.552A51.9,51.9,0,0,1,1877.273,470.081Z" transform="translate(-1792.126 -301.042)" fill="#f2f2f2"/>
      <path id="Path_1154" data-name="Path 1154" d="M1887.169,451.227c3.642,2.949,9.7,6.979,13.337,9.928-.136.323-20.489-9-28.131-14.173-24.209-16.386-44.255-37.025-61.021-61.064-6.675-9.565-8.437-19.026-4.966-29.852.9-2.813,1.539-5.717,3.224-8.758.65,1.911,1.19,3.872,1.968,5.73,15.294,36.632,36.959,68.58,68.657,93.1C1882.25,447.7,1887.169,451.227,1887.169,451.227Z" transform="translate(-1799.067 -277.914)" fill="#f2f2f2"/>
    </g>
  </g>
</svg>
