<svg xmlns="http://www.w3.org/2000/svg" width="342.596" height="338.29" viewBox="0 0 342.596 338.29">
  <g id="Group_715" data-name="Group 715" transform="translate(-405 -39)">
    <path id="Path_1165" data-name="Path 1165" d="M141.865,0A141.865,141.865,0,1,1,0,141.865,141.865,141.865,0,0,1,141.865,0Z" transform="translate(432.729 66.729)" fill="#eee"/>
    <g id="Group_322" data-name="Group 322" transform="translate(405 103.987)">
      <g id="Group_318" data-name="Group 318" transform="translate(176.769)">
        <path id="Path_1147" data-name="Path 1147" d="M1910.358,330.9a74.872,74.872,0,0,0-12.008,2.335,41.536,41.536,0,0,0-21.474,14.459c-2.754,3.531-3.979,7.292-2.1,11.5,2.105,4.709.881,8.512-2.423,12.1a25.405,25.405,0,0,0-4.043,5.531c-.561,1.1-1.079,3.138-.093,4.12.94.937,2.928.474,3.936-.1,3.854-2.167,7.339-5.053,11.308-6.941,3.615-1.719,7.721-2.385,11.527-3.734a17.351,17.351,0,0,0,4.988-2.721c5.816-4.687,11.257-9.872,17.315-14.207,7.123-5.1,15.113-3.914,22.173-.142,7.213,3.849,10.7,10.8,10.555,19.053-.205,11.752-3.794,22.286-12.748,30.351-5.539,4.991-11.217,9.876-17.188,14.337-15.662,11.707-31.687,22.94-47.24,34.788-10.37,7.9-19.057,17.5-21.874,30.733-4.985,23.414,3.146,41.156,24.144,53.933a81.269,81.269,0,0,0,54.09,11.317c37.907-4.949,62.4-27.5,78.291-60.923.2-.413.367-.841.976-2.24-1.86,1.223-3.006,1.979-4.155,2.736-13,8.569-25.745,18.147-41.631,20.215-10.941,1.426-22.166,1.081-33.255.937-13.763-.179-25.783-19.282-21.4-34.6,2.865-10.018,8.9-18.105,15.852-25.417,7.461-7.847,15.46-15.2,23.492-22.478,9.942-9,17.813-19.5,22.146-32.117,8.815-25.662-4.126-54.6-34.675-60.752a106.221,106.221,0,0,0-10.725-2.083A64.9,64.9,0,0,0,1910.358,330.9Z" transform="translate(-1849.551 -330.534)" fill="#fff"/>
        <path id="Path_1148" data-name="Path 1148" d="M1960.408,357.089c-25.674,29.87-53.737,56.647-92.289,71.58,4.2.852,8.068,2.183,11.982,2.335,21.666.833,40.957-6.9,59.335-17.352,5.016-2.852,9.485-6.65,14.281-9.9a19.657,19.657,0,0,0,9.116-16.954c.051-3.333.279-6.666.026-10.221-5.48,11.141-14.741,18.521-24.622,24.977-9.737,6.368-20.065,11.83-30.134,17.688-2.89,1.869-3.9-.221-.9-1.562,2.683-1.434,5.373-2.844,8.035-4.307a135.434,135.434,0,0,0,35.694-28.364C1959.825,375.122,1960.979,371.487,1960.408,357.089Z" transform="translate(-1797.151 -255.595)" fill="#fff"/>
        <path id="Path_1149" data-name="Path 1149" d="M1880.125,460.178a335.472,335.472,0,0,0,28.3-28.948c15.113-17.532,27.953-36.623,35.592-58.818,1.733-5.038,1.616-9.609-.983-14.042-3.689-6.275-7.651-12.4-12.017-18.434a243.334,243.334,0,0,1-20.484,68.943,207.057,207.057,0,0,1-40.929,58.458,50.869,50.869,0,0,0,4.562-2.358A48.1,48.1,0,0,0,1880.125,460.178Z" transform="translate(-1792.969 -304.002)" fill="#fff"/>
        <path id="Path_1150" data-name="Path 1150" d="M1880.735,443.319c-3.363,2.725-8.953,6.448-12.318,9.173.123.3,18.928-8.317,25.99-13.094,22.361-15.139,40.889-34.207,56.379-56.417,6.16-8.837,7.793-17.578,4.588-27.58a41.368,41.368,0,0,0-2.979-8.092c-.6,1.766-1.1,3.578-1.824,5.294-14.125,33.844-34.139,63.362-63.425,86.019C1885.283,440.059,1880.735,443.319,1880.735,443.319Z" transform="translate(-1796.31 -283.194)" fill="#fff"/>
      </g>
      <g id="Group_319" data-name="Group 319">
        <path id="Path_1151" data-name="Path 1151" d="M1903.223,330.9a74.979,74.979,0,0,1,12.01,2.335,41.509,41.509,0,0,1,21.468,14.459c2.757,3.531,3.982,7.292,2.1,11.5-2.108,4.709-.882,8.512,2.422,12.1a25.182,25.182,0,0,1,4.043,5.531c.561,1.1,1.083,3.138.1,4.12-.94.937-2.929.474-3.941-.1-3.854-2.167-7.336-5.053-11.307-6.941-3.609-1.719-7.717-2.385-11.525-3.734a17.369,17.369,0,0,1-4.989-2.721c-5.814-4.687-11.254-9.872-17.316-14.207-7.118-5.1-15.113-3.914-22.175-.142-7.206,3.849-10.7,10.8-10.551,19.053.206,11.752,3.8,22.286,12.746,30.351,5.542,4.991,11.224,9.876,17.188,14.337,15.664,11.707,31.689,22.94,47.241,34.788,10.368,7.9,19.06,17.5,21.874,30.733,4.984,23.414-3.146,41.156-24.146,53.933a81.254,81.254,0,0,1-54.088,11.317c-37.905-4.949-62.4-27.5-78.293-60.923-.191-.413-.361-.841-.974-2.24l4.159,2.736c13,8.569,25.741,18.147,41.625,20.215,10.948,1.426,22.168,1.081,33.26.937,13.763-.179,25.781-19.282,21.4-34.6-2.861-10.018-8.889-18.105-15.847-25.417-7.464-7.847-15.462-15.2-23.5-22.478-9.936-9-17.809-19.5-22.141-32.117-8.812-25.662,4.124-54.6,34.672-60.752a105.977,105.977,0,0,1,10.726-2.083A64.889,64.889,0,0,1,1903.223,330.9Z" transform="translate(-1798.205 -330.534)" fill="#fff"/>
        <path id="Path_1152" data-name="Path 1152" d="M1805.866,357.089c25.675,29.87,53.74,56.647,92.294,71.58-4.205.852-8.072,2.183-11.98,2.335-21.673.833-40.959-6.9-59.342-17.352-5.013-2.852-9.48-6.65-14.276-9.9a19.644,19.644,0,0,1-9.119-16.954c-.051-3.333-.276-6.666-.023-10.221,5.478,11.141,14.741,18.521,24.616,24.977,9.74,6.368,20.067,11.83,30.139,17.688,2.891,1.869,3.9-.221.9-1.562-2.681-1.434-5.374-2.844-8.038-4.307a135.432,135.432,0,0,1-35.69-28.364C1806.449,375.122,1805.3,371.487,1805.866,357.089Z" transform="translate(-1803.301 -255.595)" fill="#fff"/>
        <path id="Path_1153" data-name="Path 1153" d="M1871.917,460.178a335.23,335.23,0,0,1-28.3-28.948c-15.11-17.532-27.95-36.623-35.59-58.818-1.736-5.038-1.619-9.609.98-14.042,3.7-6.275,7.649-12.4,12.02-18.434a243.483,243.483,0,0,0,20.479,68.943,207.024,207.024,0,0,0,40.937,58.458,51,51,0,0,1-4.567-2.358A47.981,47.981,0,0,1,1871.917,460.178Z" transform="translate(-1793.248 -304.002)" fill="#fff"/>
        <path id="Path_1154" data-name="Path 1154" d="M1880.891,443.319c3.364,2.725,8.957,6.448,12.322,9.173-.127.3-18.933-8.317-25.992-13.094-22.367-15.139-40.888-34.207-56.376-56.417-6.167-8.837-7.8-17.578-4.588-27.58a40.687,40.687,0,0,1,2.979-8.092c.6,1.766,1.1,3.578,1.817,5.294,14.13,33.844,34.145,63.362,63.432,86.019C1876.345,440.059,1880.891,443.319,1880.891,443.319Z" transform="translate(-1799.492 -283.194)" fill="#fff"/>
      </g>
    </g>
    <g id="Ellipse_37" data-name="Ellipse 37" transform="translate(405 39)" fill="none" stroke="#eee" stroke-width="12">
      <circle cx="169.145" cy="169.145" r="169.145" stroke="none"/>
      <circle cx="169.145" cy="169.145" r="163.145" fill="none"/>
    </g>
  </g>
</svg>
