<svg xmlns="http://www.w3.org/2000/svg" width="15.741" height="14" viewBox="0 0 15.741 14">
  <path id="Path_1145" data-name="Path 1145" d="M3132.116,1638.162c-.853-.67-1.71-1.335-2.566-2l-.849-.661-.051-.043.04-.078a6.257,6.257,0,0,0,.611-1.7,5.1,5.1,0,0,0,.111-.851c.009-.247.018-.495.007-.741a6.192,6.192,0,0,0-.405-1.929,6.324,6.324,0,0,0-3.811-3.7,5.967,5.967,0,0,0-1.326-.306c-.161-.018-.322-.027-.483-.041-.024,0-.047-.008-.071-.012h-.407a.553.553,0,0,1-.07.012,6.315,6.315,0,0,0-5.642,4.115,5.867,5.867,0,0,0-.323,1.281c-.028.21-.043.421-.064.632a.679.679,0,0,1-.015.076v.407c.009.06.021.12.025.18a6.308,6.308,0,0,0,9.064,5.28,6.3,6.3,0,0,0,1.354-.894l.055-.045.068.051,3.415,2.662a1.1,1.1,0,0,0,.711.243,1.074,1.074,0,0,0,1.028-.862A1.044,1.044,0,0,0,3132.116,1638.162Zm-9-1.6a4.15,4.15,0,1,1,4.157-4.148A4.15,4.15,0,0,1,3123.115,1636.564Z" transform="translate(-3116.801 -1626.1)" fill="#d4d4d4"/>
</svg>
